<?xml version="1.0" encoding="utf-8"?>
<!-- Generator: Adobe Illustrator 15.0.0, SVG Export Plug-In . SVG Version: 6.00 Build 0)  -->
<!DOCTYPE svg PUBLIC "-//W3C//DTD SVG 1.1//EN" "http://www.w3.org/Graphics/SVG/1.1/DTD/svg11.dtd">
<svg version="1.1" id="svg8839" xmlns:svg="http://www.w3.org/2000/svg"
	 xmlns="http://www.w3.org/2000/svg" xmlns:xlink="http://www.w3.org/1999/xlink" x="0px" y="0px" width="128px" height="128px"
	 viewBox="5729.132 536.5 128 128" enable-background="new 5729.132 536.5 128 128" xml:space="preserve">
<g id="layer1">
	<rect id="rect8727" fill="#559DCC" width="1600" height="1200"/>
	<path id="path8729" fill="#FFFFFF" d="M-30.66-192.677c-22.559,0-41.252,16.666-44.432,38.346
		c-0.795-0.071-1.596-0.116-2.408-0.116c-15.521,0-28.162,13.179-28.508,29.543c-2.593-1.449-5.572-2.279-8.751-2.279
		c-9.936,0-18.009,8.073-18.009,18.008s10.166,20.829,20.102,20.829c84.205,0.271,140.152,1.111,224.065,0.564
		c11.298,0,21.63-5.357,21.63-16.655s-9.17-20.468-20.467-20.468c-2.945,0-5.742,0.626-8.273,1.748
		c-4.586-7.594-12.91-12.674-22.422-12.674c-3.746,0-7.315,0.795-10.539,2.214c-1.795-11.527-11.767-20.364-23.795-20.364
		c-9.494,0-17.709,5.501-21.633,13.49c-3.508-2.076-7.517-3.409-11.793-3.767c0.09-1.161,0.142-2.325,0.142-3.508
		C14.249-172.555-5.873-192.677-30.66-192.677z"/>
	<path id="path8731" fill="#FFFFFF" d="M25.676-39.053c-37.376,0-68.348,27.613-73.615,63.534c-1.317-0.117-2.644-0.193-3.99-0.193
		c-25.715,0-46.658,21.836-47.231,48.948c-4.296-2.4-9.232-3.775-14.5-3.775c-16.462,0-29.837,13.375-29.837,29.836
		s16.844,34.511,33.305,34.511c139.514,0.449,232.209,1.841,371.239,0.935c18.718,0,35.839-8.876,35.839-27.595
		c0-18.718-15.194-33.912-33.912-33.912c-4.881,0-9.513,1.037-13.707,2.896c-7.598-12.582-21.389-20.999-37.15-20.999
		c-6.205,0-12.119,1.317-17.459,3.668c-2.975-19.098-19.497-33.74-39.426-33.74c-15.731,0-29.342,9.115-35.842,22.351
		c-5.812-3.44-12.454-5.647-19.541-6.242c0.15-1.923,0.236-3.851,0.236-5.812C100.084-5.714,66.745-39.053,25.676-39.053z"/>
	<path id="path8733" fill="#FFFFFF" d="M116.859,174.813c-38.762,0-70.882,28.637-76.345,65.89c-1.366-0.122-2.741-0.2-4.138-0.2
		c-26.67,0-48.389,22.645-48.983,50.763c-4.456-2.489-9.574-3.915-15.038-3.915c-17.07,0-30.941,13.871-30.941,30.942
		c0,17.072,17.467,35.79,34.539,35.79c144.686,0.466,240.818,1.91,385.003,0.97c19.412,0,37.167-9.206,37.167-28.618
		s-15.757-35.169-35.169-35.169c-5.062,0-9.864,1.076-14.214,3.003c-7.881-13.049-22.184-21.777-38.529-21.778
		c-6.436,0-12.568,1.366-18.106,3.804c-3.085-19.806-20.22-34.991-40.886-34.991c-16.316,0-30.432,9.453-37.172,23.179
		c-6.027-3.568-12.916-5.857-20.266-6.473c0.155-1.995,0.246-3.995,0.246-6.029C194.027,209.389,159.451,174.813,116.859,174.813z"
		/>
	<path id="path8735" fill="#FFFFFF" d="M305.928,361.564c-33.193,0-60.699,24.522-65.377,56.423
		c-1.17-0.104-2.348-0.171-3.543-0.171c-22.838,0-41.438,19.392-41.945,43.47c-3.816-2.132-8.199-3.353-12.878-3.353
		c-14.619,0-26.497,11.878-26.497,26.497s14.958,30.647,29.577,30.647c123.899,0.399,206.221,1.636,329.691,0.83
		c16.623,0,31.827-7.883,31.827-24.506s-13.493-30.116-30.116-30.116c-4.334,0-8.448,0.921-12.173,2.571
		c-6.748-11.174-18.996-18.648-32.992-18.648c-5.512,0-10.764,1.169-15.507,3.257c-2.642-16.961-17.314-29.964-35.012-29.964
		c-13.972,0-26.059,8.095-31.831,19.849c-5.162-3.055-11.061-5.016-17.354-5.543c0.133-1.708,0.209-3.421,0.209-5.162
		C372.008,391.172,342.4,361.564,305.928,361.564z"/>
	<path id="path8737" fill="#FFFFFF" d="M-0.168,544.208c-30.869,0-56.449,22.807-60.8,52.475c-1.089-0.097-2.184-0.16-3.295-0.16
		c-21.239,0-38.537,18.035-39.011,40.428c-3.548-1.982-7.625-3.118-11.975-3.118c-13.597,0-24.644,11.047-24.644,24.643
		s13.911,28.503,27.507,28.503c115.229,0.371,191.787,1.521,306.615,0.772c15.46,0,29.601-7.331,29.601-22.791
		s-12.55-28.009-28.009-28.009c-4.031,0-7.856,0.856-11.32,2.392c-6.275-10.392-17.666-17.344-30.684-17.344
		c-5.126,0-10.01,1.088-14.421,3.029c-2.456-15.773-16.103-27.867-32.562-27.867c-12.993,0-24.234,7.528-29.604,18.46
		c-4.8-2.841-10.285-4.664-16.139-5.155c0.123-1.588,0.195-3.181,0.195-4.801C61.289,571.744,33.753,544.208-0.168,544.208z"/>
	<path id="path8739" fill="#FFFFFF" d="M356.744,800.447c-21.65,0-39.592,15.995-42.643,36.803
		c-0.764-0.068-1.531-0.112-2.311-0.112c-14.896,0-27.028,12.648-27.36,28.354c-2.489-1.391-5.349-2.188-8.399-2.188
		c-9.535,0-17.283,7.748-17.283,17.283s9.757,19.99,19.293,19.99c80.814,0.261,134.508,1.067,215.043,0.542
		c10.843,0,20.76-5.142,20.76-15.984s-8.801-19.644-19.644-19.644c-2.827,0-5.51,0.601-7.939,1.677
		c-4.401-7.288-12.391-12.164-21.52-12.164c-3.595,0-7.021,0.764-10.114,2.125c-1.723-11.062-11.293-19.545-22.837-19.545
		c-9.113,0-16.997,5.28-20.763,12.947c-3.366-1.993-7.213-3.271-11.318-3.616c0.086-1.113,0.137-2.23,0.137-3.366
		C399.846,819.76,380.533,800.447,356.744,800.447z"/>
	<path id="path8741" fill="#FFFFFF" d="M213.762,907.494c-9.657,0-17.66,7.135-19.021,16.417c-0.34-0.03-0.684-0.05-1.031-0.05
		c-6.645,0-12.057,5.642-12.204,12.647c-1.11-0.62-2.386-0.976-3.747-0.976c-4.254,0-7.709,3.456-7.709,7.71
		s4.352,8.917,8.605,8.917c36.05,0.116,60.002,0.477,95.927,0.242c4.837,0,9.261-2.294,9.261-7.131c0-4.836-3.926-8.763-8.764-8.763
		c-1.26,0-2.457,0.269-3.541,0.748c-1.963-3.251-5.527-5.426-9.6-5.426c-1.604,0-3.132,0.341-4.512,0.948
		c-0.769-4.936-5.037-8.719-10.188-8.719c-4.064,0-7.582,2.355-9.261,5.775c-1.502-0.889-3.218-1.459-5.05-1.613
		c0.039-0.497,0.062-0.995,0.062-1.502C232.989,916.108,224.374,907.494,213.762,907.494z"/>
	<path id="path8743" fill="#FFFFFF" d="M68.121,982.151c-35.492,0-64.903,26.222-69.906,60.333c-1.25-0.111-2.51-0.184-3.788-0.184
		c-24.421,0-44.308,20.735-44.853,46.481c-4.079-2.279-8.767-3.585-13.77-3.585c-15.631,0-28.332,12.701-28.332,28.333
		s15.994,32.771,31.626,32.771c132.483,0.427,220.509,1.749,352.533,0.888c17.774,0,34.032-8.43,34.032-26.204
		s-14.428-32.203-32.203-32.203c-4.634,0-9.033,0.985-13.016,2.75c-7.215-11.948-20.312-19.941-35.278-19.941
		c-5.894,0-11.509,1.251-16.58,3.483c-2.825-18.136-18.515-32.04-37.438-32.04c-14.939,0-27.863,8.655-34.036,21.224
		c-5.519-3.267-11.827-5.362-18.556-5.927c0.142-1.826,0.225-3.657,0.225-5.521C138.781,1013.811,107.121,982.151,68.121,982.151z"
		/>
	<path id="path8745" fill="#FFFFFF" d="M91.439,1206.458c-38.98,0-71.28,28.798-76.773,66.26c-1.375-0.122-2.758-0.202-4.161-0.202
		c-26.819,0-48.661,22.773-49.259,51.049c-4.48-2.503-9.628-3.938-15.121-3.938c-17.168,0-31.117,13.949-31.117,31.116
		c0,17.168,17.566,35.991,34.733,35.991c145.499,0.469,242.171,1.921,387.166,0.975c19.521,0,37.376-9.257,37.376-28.778
		c0-19.521-15.846-35.366-35.367-35.366c-5.089,0-9.92,1.081-14.294,3.02c-7.925-13.122-22.308-21.9-38.745-21.9
		c-6.471,0-12.639,1.374-18.209,3.825c-3.102-19.917-20.332-35.188-41.115-35.188c-16.406,0-30.602,9.506-37.38,23.31
		c-6.062-3.588-12.989-5.89-20.379-6.51c0.155-2.006,0.246-4.017,0.246-6.062C169.04,1241.228,134.271,1206.458,91.439,1206.458z"/>
	<path id="path8747" fill="#FFFFFF" d="M399.701-445.306c47.777,0,87.368,35.298,94.102,81.215c1.685-0.149,3.379-0.247,5.1-0.247
		c32.873,0,59.645,27.913,60.377,62.57c5.491-3.067,11.802-4.826,18.535-4.826c21.042,0,38.14,17.097,38.14,38.14
		c0,21.042-21.53,44.114-42.573,44.114c-178.34,0.574-296.831,2.354-474.553,1.194c-23.928,0-45.812-11.347-45.812-35.273
		c0-23.927,19.422-43.35,43.35-43.35c6.238,0,12.16,1.326,17.521,3.702c9.714-16.084,27.343-26.843,47.489-26.843
		c7.934,0,15.493,1.684,22.319,4.689c3.803-24.413,24.923-43.13,50.396-43.13c20.111,0,37.51,11.651,45.817,28.57
		c7.431-4.398,15.921-7.219,24.979-7.979c-0.191-2.458-0.303-4.923-0.303-7.431C304.584-402.688,347.202-445.306,399.701-445.306z"
		/>
	<path id="path8749" fill="#FFFFFF" d="M585.426-216.56c38.91,0,71.153,28.747,76.637,66.142c1.372-0.122,2.753-0.201,4.153-0.201
		c26.772,0,48.575,22.732,49.171,50.957c4.473-2.498,9.612-3.93,15.096-3.93c17.137,0,31.062,13.924,31.062,31.061
		s-17.535,35.927-34.672,35.927c-145.241,0.468-241.741,1.917-386.478,0.973c-19.486,0-37.311-9.241-37.311-28.727
		s15.818-35.304,35.305-35.304c5.08,0,9.902,1.08,14.269,3.015c7.91-13.099,22.268-21.861,38.675-21.861
		c6.461,0,12.618,1.371,18.178,3.818c3.096-19.882,20.297-35.125,41.042-35.125c16.378,0,30.548,9.489,37.314,23.268
		c6.051-3.582,12.965-5.879,20.343-6.498c-0.155-2.002-0.246-4.009-0.246-6.051C507.963-181.852,542.671-216.56,585.426-216.56z"/>
	<path id="path8751" fill="#FFFFFF" d="M580.318,188.9c13.382,0,24.472,9.887,26.357,22.748c0.472-0.042,0.947-0.069,1.429-0.069
		c9.208,0,16.706,7.818,16.911,17.526c1.539-0.859,3.306-1.352,5.192-1.352c5.894,0,10.683,4.789,10.683,10.683
		s-6.03,12.356-11.925,12.356c-49.953,0.161-83.143,0.659-132.923,0.334c-6.702,0-12.832-3.178-12.832-9.88
		c0-6.702,5.44-12.142,12.143-12.142c1.747,0,3.405,0.372,4.907,1.037c2.721-4.505,7.658-7.519,13.302-7.519
		c2.223,0,4.34,0.472,6.252,1.313c1.064-6.838,6.98-12.081,14.115-12.081c5.634,0,10.507,3.264,12.834,8.003
		c2.081-1.232,4.459-2.022,6.996-2.235c-0.053-0.689-0.084-1.379-0.084-2.082C553.676,200.837,565.613,188.9,580.318,188.9z"/>
	<path id="path8753" fill="#FFFFFF" d="M486.213,522.376c12.692,0,23.211,9.377,25,21.576c0.447-0.04,0.897-0.065,1.354-0.065
		c8.733,0,15.847,7.416,16.041,16.623c1.459-0.814,3.135-1.282,4.924-1.282c5.591,0,10.133,4.543,10.133,10.133
		c0,5.591-5.72,11.72-11.311,11.72c-47.38,0.153-78.86,0.626-126.075,0.318c-6.357,0-12.172-3.015-12.172-9.372
		c0-6.356,5.16-11.517,11.518-11.517c1.656,0,3.229,0.353,4.654,0.983c2.58-4.273,7.264-7.132,12.616-7.132
		c2.107,0,4.116,0.447,5.93,1.246c1.011-6.486,6.621-11.459,13.389-11.459c5.343,0,9.966,3.096,12.173,7.591
		c1.974-1.168,4.229-1.918,6.636-2.12c-0.051-0.652-0.08-1.308-0.08-1.974C460.942,533.698,472.265,522.376,486.213,522.376z"/>
	<path id="path8755" fill="#FFFFFF" d="M694.895,587.7c44.343,0,81.088,32.76,87.337,75.376c1.563-0.139,3.136-0.229,4.733-0.229
		c30.51,0,55.356,25.905,56.036,58.072c5.097-2.848,10.953-4.479,17.202-4.479c19.53,0,35.398,15.868,35.398,35.398
		c0,19.529-19.982,40.942-39.513,40.942c-165.519,0.533-275.492,2.186-440.438,1.109c-22.207,0-42.519-10.531-42.519-32.738
		s18.026-40.232,40.233-40.232c5.79,0,11.285,1.23,16.261,3.436c9.015-14.928,25.377-24.914,44.076-24.914
		c7.362,0,14.379,1.562,20.714,4.352c3.529-22.658,23.131-40.029,46.773-40.029c18.664,0,34.812,10.813,42.523,26.517
		c6.896-4.082,14.775-6.7,23.183-7.405c-0.177-2.281-0.279-4.569-0.279-6.896C606.616,627.254,646.17,587.7,694.895,587.7z"/>
	<path id="path8757" fill="#FFFFFF" d="M697.678,907.494c41.896,0,76.614,30.952,82.519,71.218c1.478-0.131,2.964-0.216,4.473-0.216
		c28.826,0,52.302,24.477,52.944,54.868c4.816-2.69,10.35-4.231,16.254-4.231c18.452,0,33.445,14.992,33.445,33.444
		s-18.881,38.685-37.333,38.685c-156.388,0.504-260.294,2.064-416.14,1.048c-20.982,0-40.174-9.95-40.174-30.933
		c0-20.981,17.031-38.013,38.014-38.013c5.471,0,10.663,1.162,15.364,3.246c8.518-14.104,23.977-23.539,41.644-23.539
		c6.957,0,13.586,1.477,19.572,4.111c3.334-21.408,21.854-37.821,44.192-37.821c17.635,0,32.892,10.218,40.178,25.054
		c6.515-3.856,13.961-6.331,21.904-6.997c-0.168-2.155-0.265-4.317-0.265-6.516C614.27,944.866,651.641,907.494,697.678,907.494z"/>
	<path id="path8759" fill="#FFFFFF" d="M425.452,1108.847c12.897,0,23.585,9.528,25.403,21.924c0.454-0.04,0.912-0.066,1.377-0.066
		c8.874,0,16.101,7.534,16.298,16.891c1.482-0.828,3.187-1.303,5.004-1.303c5.681,0,10.296,4.615,10.296,10.296
		s-5.812,11.908-11.493,11.908c-48.143,0.155-80.13,0.636-128.105,0.323c-6.459,0-12.366-3.063-12.366-9.522
		s5.242-11.702,11.701-11.702c1.685,0,3.283,0.358,4.73,0.999c2.621-4.342,7.381-7.246,12.819-7.246
		c2.142,0,4.183,0.455,6.024,1.266c1.027-6.59,6.729-11.643,13.605-11.643c5.428,0,10.125,3.145,12.368,7.712
		c2.005-1.187,4.298-1.948,6.743-2.153c-0.052-0.664-0.082-1.329-0.082-2.006C399.775,1120.352,411.28,1108.847,425.452,1108.847z"
		/>
	<path id="path8761" fill="#FFFFFF" d="M643.51,1175.123c36.249,0,66.286,26.779,71.395,61.617c1.278-0.114,2.564-0.188,3.869-0.188
		c24.94,0,45.252,21.177,45.808,47.471c4.167-2.327,8.954-3.661,14.062-3.661c15.965,0,28.937,12.972,28.937,28.937
		s-16.336,33.47-32.301,33.47c-135.305,0.436-225.203,1.786-360.039,0.906c-18.152,0-34.757-8.608-34.757-26.762
		s14.735-32.89,32.889-32.89c4.733,0,9.226,1.006,13.293,2.809c7.369-12.202,20.744-20.365,36.03-20.365
		c6.019,0,11.754,1.277,16.933,3.557c2.885-18.521,18.908-32.722,38.235-32.722c15.257,0,28.457,8.84,34.761,21.676
		c5.637-3.337,12.078-5.478,18.951-6.054c-0.145-1.865-0.229-3.735-0.229-5.637C571.347,1207.456,603.68,1175.123,643.51,1175.123z"
		/>
	<path id="path8763" fill="#FFFFFF" d="M701.456,1350.166c39.886,0,72.937,29.467,78.558,67.8c1.406-0.125,2.821-0.206,4.258-0.206
		c27.442,0,49.792,23.302,50.403,52.234c4.585-2.562,9.852-4.028,15.474-4.028c17.566,0,31.839,14.272,31.839,31.839
		c0,17.567-17.974,36.828-35.54,36.828c-148.881,0.479-247.8,1.965-396.164,0.997c-19.975,0-38.245-9.473-38.245-29.447
		s16.214-36.188,36.188-36.188c5.208,0,10.151,1.106,14.627,3.09c8.108-13.427,22.826-22.409,39.645-22.409
		c6.623,0,12.934,1.406,18.633,3.914c3.174-20.38,20.805-36.005,42.071-36.005c16.788,0,31.312,9.727,38.249,23.851
		c6.202-3.671,13.29-6.026,20.853-6.661c-0.159-2.052-0.252-4.109-0.252-6.203C622.052,1385.744,657.629,1350.166,701.456,1350.166z
		"/>
	<path id="path8765" fill="#FFFFFF" d="M638.601-653.505c-43.366,0-79.302,32.038-85.414,73.717
		c-1.528-0.136-3.067-0.224-4.629-0.224c-29.838,0-54.138,25.335-54.803,56.793c-4.984-2.785-10.712-4.38-16.823-4.38
		c-19.101,0-34.619,15.519-34.619,34.619s19.543,40.042,38.643,40.042c161.875,0.521,269.427,2.137,430.741,1.084
		c21.718,0,41.583-10.299,41.583-32.017s-17.629-39.347-39.348-39.347c-5.662,0-11.037,1.203-15.903,3.36
		c-8.816-14.599-24.817-24.365-43.105-24.365c-7.2,0-14.062,1.528-20.258,4.255c-3.451-22.159-22.621-39.148-45.743-39.148
		c-18.254,0-34.046,10.576-41.588,25.933c-6.743-3.992-14.45-6.553-22.672-7.242c0.173-2.231,0.273-4.469,0.273-6.744
		C724.936-614.822,686.253-653.505,638.601-653.505z"/>
	<path id="path8767" fill="#FFFFFF" d="M774.871-311.214c-11.343,0-20.741,8.38-22.34,19.281c-0.4-0.036-0.803-0.059-1.211-0.059
		c-7.805,0-14.16,6.626-14.334,14.854c-1.304-0.728-2.802-1.146-4.4-1.146c-4.995,0-9.054,4.059-9.054,9.055
		c0,4.995,5.111,10.473,10.106,10.473c42.338,0.136,70.469,0.559,112.66,0.284c5.68,0,10.876-2.694,10.876-8.375
		c0-5.68-4.611-10.291-10.292-10.291c-1.48,0-2.887,0.315-4.159,0.879c-2.306-3.818-6.491-6.373-11.274-6.373
		c-1.883,0-3.678,0.4-5.298,1.113c-0.903-5.795-5.917-10.239-11.965-10.239c-4.773,0-8.904,2.766-10.877,6.783
		c-1.764-1.044-3.779-1.714-5.93-1.895c0.045-0.583,0.071-1.168,0.071-1.764C797.451-301.096,787.334-311.214,774.871-311.214z"/>
	<path id="path8769" fill="#FFFFFF" d="M729.797-29.118c-37.053,0-67.757,27.375-72.979,62.985c-1.306-0.116-2.62-0.191-3.955-0.191
		c-25.493,0-46.256,21.647-46.824,48.525c-4.259-2.379-9.152-3.742-14.374-3.742c-16.319,0-29.579,13.259-29.579,29.579
		s16.697,34.212,33.017,34.212c138.31,0.445,230.204,1.826,368.034,0.927c18.557,0,35.529-8.8,35.529-27.356
		c0-18.556-15.063-33.619-33.619-33.619c-4.839,0-9.431,1.028-13.588,2.871c-7.533-12.474-21.206-20.818-36.83-20.818
		c-6.152,0-12.016,1.306-17.31,3.636c-2.949-18.933-19.328-33.449-39.084-33.449c-15.596,0-29.09,9.036-35.533,22.158
		c-5.762-3.411-12.347-5.599-19.371-6.188c0.147-1.907,0.233-3.818,0.233-5.763C803.563,3.934,770.512-29.118,729.797-29.118z"/>
	<path id="path8771" fill="#FFFFFF" d="M748.271,328.026c-25.289,0-46.245,18.684-49.81,42.988
		c-0.892-0.079-1.788-0.131-2.699-0.131c-17.4,0-31.57,14.774-31.958,33.119c-2.907-1.623-6.247-2.554-9.812-2.554
		c-11.138,0-20.188,9.05-20.188,20.188c0,11.139,11.396,23.351,22.534,23.351c94.398,0.304,157.118,1.246,251.188,0.633
		c12.665,0,24.25-6.006,24.25-18.671s-10.281-22.946-22.946-22.946c-3.302,0-6.436,0.702-9.273,1.96
		c-5.142-8.514-14.474-14.209-25.138-14.209c-4.198,0-8.2,0.892-11.813,2.482c-2.013-12.923-13.191-22.83-26.676-22.83
		c-10.645,0-19.854,6.168-24.251,15.123c-3.933-2.328-8.427-3.821-13.222-4.224c0.101-1.301,0.159-2.605,0.159-3.933
		C798.617,350.584,776.06,328.026,748.271,328.026z"/>
	<path id="path8773" fill="#FFFFFF" d="M902.006,452.023c-27.797,0-50.831,20.536-54.748,47.251
		c-0.98-0.088-1.967-0.144-2.968-0.144c-19.125,0-34.7,16.239-35.127,36.402c-3.195-1.784-6.866-2.807-10.783-2.807
		c-12.243,0-22.19,9.946-22.19,22.189c0,12.242,12.526,25.665,24.77,25.665c103.758,0.335,172.696,1.37,276.094,0.695
		c13.921,0,26.654-6.602,26.654-20.522s-11.3-25.221-25.221-25.221c-3.63,0-7.074,0.771-10.193,2.154
		c-5.651-9.357-15.908-15.617-27.63-15.617c-4.615,0-9.014,0.979-12.985,2.728c-2.212-14.203-14.5-25.093-29.32-25.093
		c-11.7,0-21.822,6.778-26.656,16.622c-4.322-2.559-9.262-4.2-14.532-4.643c0.11-1.43,0.175-2.864,0.175-4.323
		C957.344,476.818,932.55,452.023,902.006,452.023z"/>
	<path id="path8775" fill="#FFFFFF" d="M1008.07,956.776c-25.31,0-46.282,18.698-49.85,43.022c-0.893-0.079-1.79-0.131-2.702-0.131
		c-17.413,0-31.596,14.787-31.983,33.146c-2.909-1.625-6.252-2.557-9.818-2.557c-11.147,0-20.204,9.057-20.204,20.204
		s11.405,23.369,22.552,23.369c94.474,0.305,157.243,1.247,251.39,0.633c12.675,0,24.269-6.011,24.269-18.686
		c0-12.676-10.289-22.964-22.964-22.964c-3.305,0-6.441,0.702-9.282,1.961c-5.145-8.521-14.483-14.22-25.156-14.22
		c-4.202,0-8.207,0.892-11.823,2.483c-2.015-12.933-13.202-22.848-26.697-22.848c-10.653,0-19.869,6.172-24.271,15.135
		c-3.936-2.33-8.434-3.824-13.232-4.227c0.102-1.303,0.16-2.608,0.16-3.937C1058.457,979.353,1035.881,956.776,1008.07,956.776z"/>
	<path id="path8777" fill="#FFFFFF" d="M909.009,1154.814c-20.793,0-38.023,15.361-40.954,35.345
		c-0.732-0.065-1.471-0.107-2.219-0.107c-14.307,0-25.958,12.147-26.276,27.231c-2.391-1.336-5.137-2.101-8.067-2.101
		c-9.157,0-16.598,7.44-16.598,16.599s9.369,19.199,18.527,19.199c77.614,0.25,129.183,1.024,206.528,0.52
		c10.413,0,19.938-4.938,19.938-15.352s-8.452-18.865-18.865-18.865c-2.715,0-5.292,0.576-7.626,1.61
		c-4.227-7-11.899-11.683-20.667-11.683c-3.452,0-6.742,0.733-9.714,2.041c-1.654-10.625-10.846-18.771-21.933-18.771
		c-8.752,0-16.323,5.071-19.939,12.435c-3.233-1.914-6.929-3.143-10.871-3.473c0.083-1.07,0.131-2.143,0.131-3.234
		C950.403,1173.361,931.856,1154.814,909.009,1154.814z"/>
	<path id="path8779" fill="#FFFFFF" d="M1070.646,1314.984c-40.311,0-73.715,29.782-79.396,68.523
		c-1.421-0.126-2.851-0.208-4.303-0.208c-27.735,0-50.323,23.551-50.941,52.792c-4.634-2.588-9.957-4.071-15.639-4.071
		c-17.754,0-32.18,14.426-32.18,32.18s18.166,37.221,35.92,37.221c150.471,0.484,250.445,1.986,400.395,1.008
		c20.188,0,38.652-9.573,38.652-29.762c0-20.188-16.387-36.575-36.575-36.575c-5.263,0-10.259,1.119-14.782,3.123
		c-8.195-13.57-23.07-22.647-40.068-22.647c-6.693,0-13.071,1.42-18.831,3.956c-3.208-20.599-21.027-36.391-42.521-36.391
		c-16.968,0-31.647,9.831-38.657,24.105c-6.269-3.71-13.433-6.091-21.075-6.731c0.161-2.074,0.254-4.154,0.254-6.27
		C1150.898,1350.942,1114.941,1314.984,1070.646,1314.984z"/>
	<path id="path8781" fill="#FFFFFF" d="M841.514,1696.649c-36.232,0-66.257,26.768-71.363,61.59
		c-1.277-0.113-2.562-0.187-3.867-0.187c-24.93,0-45.231,21.167-45.787,47.45c-4.165-2.326-8.95-3.659-14.057-3.659
		c-15.958,0-28.924,12.966-28.924,28.924c0,15.957,16.328,33.454,32.286,33.454c135.245,0.436,225.105,1.785,359.883,0.906
		c18.146,0,34.742-8.604,34.742-26.751c0-18.145-14.729-32.874-32.875-32.874c-4.73,0-9.221,1.006-13.287,2.808
		c-7.365-12.198-20.735-20.357-36.014-20.357c-6.017,0-11.749,1.277-16.926,3.556c-2.884-18.514-18.9-32.708-38.219-32.708
		c-15.251,0-28.445,8.836-34.746,21.667c-5.634-3.335-12.073-5.475-18.942-6.051c0.145-1.864,0.229-3.733,0.229-5.636
		C913.646,1728.969,881.327,1696.649,841.514,1696.649z"/>
	<path id="path8783" fill="#FFFFFF" d="M1053.41-481.832c12.944,0,23.671,9.563,25.496,22.004c0.456-0.041,0.915-0.067,1.382-0.067
		c8.906,0,16.159,7.563,16.357,16.953c1.488-0.831,3.198-1.307,5.022-1.307c5.701,0,10.334,4.632,10.334,10.333
		s-5.834,11.952-11.535,11.952c-48.319,0.156-80.424,0.638-128.575,0.324c-6.483,0-12.413-3.074-12.413-9.557
		c0-6.482,5.263-11.745,11.745-11.745c1.69,0,3.295,0.359,4.747,1.003c2.632-4.357,7.409-7.272,12.867-7.272
		c2.149,0,4.197,0.456,6.047,1.27c1.03-6.614,6.753-11.686,13.654-11.686c5.449,0,10.163,3.157,12.414,7.741
		c2.013-1.191,4.313-1.956,6.768-2.162c-0.052-0.666-0.082-1.334-0.082-2.013C1027.639-470.285,1039.186-481.832,1053.41-481.832z"
		/>
	<path id="path8785" fill="#FFFFFF" d="M1231.004-366.727c46.193,0,84.471,34.126,90.981,78.521
		c1.628-0.145,3.267-0.239,4.931-0.239c31.782,0,57.666,26.987,58.374,60.495c5.31-2.966,11.41-4.666,17.921-4.666
		c20.345,0,36.875,16.53,36.875,36.875s-20.816,42.651-41.161,42.651c-172.426,0.555-286.987,2.276-458.815,1.155
		c-23.134,0-44.294-10.97-44.294-34.104s18.778-41.912,41.912-41.912c6.031,0,11.757,1.282,16.939,3.579
		c9.392-15.55,26.437-25.953,45.915-25.953c7.67,0,14.979,1.628,21.579,4.533c3.676-23.603,24.096-41.699,48.725-41.699
		c19.443,0,36.265,11.265,44.298,27.623c7.183-4.252,15.392-6.98,24.15-7.714c-0.185-2.377-0.292-4.76-0.292-7.184
		C1139.042-325.522,1180.246-366.727,1231.004-366.727z"/>
	<path id="path8787" fill="#FFFFFF" d="M1273.265-71.533c36.989,0,67.64,27.327,72.853,62.875c1.304-0.116,2.616-0.191,3.948-0.191
		c25.45,0,46.176,21.609,46.743,48.441c4.252-2.375,9.137-3.736,14.35-3.736c16.291,0,29.527,13.236,29.527,29.527
		s-16.669,34.153-32.96,34.153c-138.068,0.445-229.804,1.823-367.394,0.925c-18.524,0-35.468-8.784-35.468-27.308
		c0-18.524,15.037-33.561,33.562-33.561c4.829,0,9.413,1.027,13.564,2.866c7.52-12.452,21.168-20.782,36.766-20.782
		c6.142,0,11.994,1.304,17.279,3.63c2.943-18.9,19.294-33.391,39.016-33.391c15.569,0,29.039,9.021,35.471,22.119
		c5.752-3.405,12.326-5.589,19.339-6.177c-0.147-1.903-0.233-3.812-0.233-5.753C1199.627-38.539,1232.621-71.533,1273.265-71.533z"
		/>
	<path id="path8789" fill="#FFFFFF" d="M1116.45,149.675c36.958,0,67.584,27.304,72.793,62.824c1.303-0.116,2.614-0.191,3.945-0.191
		c25.429,0,46.138,21.592,46.704,48.401c4.248-2.373,9.13-3.733,14.338-3.733c16.278,0,29.504,13.226,29.504,29.503
		s-16.655,34.125-32.933,34.125c-137.956,0.444-229.616,1.821-367.094,0.925c-18.509,0-35.438-8.777-35.438-27.287
		c0-18.509,15.024-33.533,33.533-33.533c4.826,0,9.406,1.025,13.554,2.863c7.514-12.442,21.15-20.765,36.735-20.765
		c6.137,0,11.984,1.303,17.266,3.627c2.94-18.885,19.278-33.363,38.983-33.363c15.557,0,29.016,9.013,35.442,22.101
		c5.747-3.402,12.315-5.584,19.322-6.172c-0.147-1.902-0.233-3.809-0.233-5.748C1042.872,182.642,1075.84,149.675,1116.45,149.675z"
		/>
	<path id="path8791" fill="#FFFFFF" d="M1320.13,407.382c28.972,0,52.979,21.403,57.062,49.247c1.021-0.091,2.049-0.149,3.093-0.149
		c19.933,0,36.166,16.926,36.61,37.941c3.33-1.86,7.157-2.927,11.239-2.927c12.761,0,23.128,10.368,23.128,23.128
		s-13.056,26.75-25.815,26.75c-108.143,0.349-179.993,1.428-287.761,0.725c-14.509,0-27.78-6.881-27.78-21.39
		s11.777-26.286,26.287-26.286c3.782,0,7.373,0.804,10.624,2.244c5.89-9.753,16.58-16.277,28.797-16.277
		c4.811,0,9.395,1.021,13.534,2.844c2.305-14.804,15.111-26.153,30.559-26.153c12.194,0,22.744,7.065,27.783,17.324
		c4.505-2.666,9.653-4.377,15.146-4.838c-0.116-1.491-0.184-2.985-0.184-4.506C1262.453,433.225,1288.296,407.382,1320.13,407.382z"
		/>
	<path id="path8793" fill="#FFFFFF" d="M1228.202,724.144c38.906,0,71.146,28.743,76.629,66.135c1.372-0.122,2.752-0.2,4.153-0.2
		c26.769,0,48.569,22.729,49.165,50.951c4.473-2.498,9.61-3.93,15.094-3.93c17.136,0,31.058,13.923,31.058,31.059
		c0,17.135-17.532,35.923-34.668,35.923c-145.225,0.468-241.715,1.917-386.438,0.973c-19.484,0-37.306-9.239-37.306-28.724
		s15.816-35.301,35.301-35.301c5.079,0,9.901,1.08,14.267,3.015c7.91-13.098,22.266-21.859,38.672-21.859
		c6.461,0,12.616,1.372,18.175,3.818c3.097-19.88,20.295-35.121,41.039-35.121c16.376,0,30.544,9.487,37.31,23.265
		c6.05-3.581,12.964-5.878,20.341-6.497c-0.155-2.002-0.246-4.009-0.246-6.051C1150.747,758.848,1185.451,724.144,1228.202,724.144z
		"/>
	<path id="path8795" fill="#FFFFFF" d="M1323.437,1015.603c17.298,0,31.631,12.779,34.068,29.403
		c0.61-0.055,1.224-0.089,1.847-0.089c11.901,0,21.594,10.104,21.859,22.652c1.988-1.11,4.272-1.747,6.71-1.747
		c7.618,0,13.808,6.19,13.808,13.809s-7.795,15.971-15.413,15.971c-64.565,0.208-107.465,0.853-171.807,0.433
		c-8.663,0-16.586-4.107-16.586-12.771c0-8.662,7.031-15.694,15.694-15.694c2.258,0,4.401,0.48,6.343,1.341
		c3.517-5.823,9.899-9.719,17.193-9.719c2.872,0,5.608,0.609,8.08,1.697c1.377-8.838,9.023-15.615,18.245-15.615
		c7.281,0,13.58,4.219,16.588,10.344c2.69-1.592,5.764-2.613,9.043-2.889c-0.068-0.89-0.108-1.782-0.108-2.689
		C1289.001,1031.032,1304.43,1015.603,1323.437,1015.603z"/>
	<path id="path8797" fill="#FFFFFF" d="M1309.243,1508.953c38.965,0,71.253,28.787,76.744,66.234
		c1.374-0.122,2.756-0.201,4.159-0.201c26.81,0,48.643,22.764,49.24,51.028c4.479-2.502,9.625-3.936,15.116-3.936
		c17.161,0,31.104,13.944,31.104,31.104c0,17.162-17.559,35.978-34.721,35.978c-145.443,0.469-242.079,1.92-387.02,0.975
		c-19.514,0-37.361-9.254-37.361-28.768s15.84-35.354,35.354-35.354c5.087,0,9.916,1.082,14.289,3.02
		c7.921-13.117,22.299-21.893,38.729-21.893c6.47,0,12.635,1.374,18.202,3.824c3.101-19.91,20.325-35.175,41.101-35.175
		c16.4,0,30.59,9.503,37.365,23.301c6.06-3.587,12.983-5.888,20.371-6.507c-0.155-2.005-0.246-4.016-0.246-6.061
		C1231.671,1543.71,1266.428,1508.953,1309.243,1508.953z"/>
	<path id="path8799" fill="#FFFFFF" d="M1510.971,1696.649c23.588,0,43.135,17.427,46.459,40.097
		c0.832-0.074,1.668-0.122,2.518-0.122c16.23,0,29.447,13.78,29.809,30.892c2.712-1.515,5.827-2.383,9.151-2.383
		c10.389,0,18.83,8.441,18.83,18.83s-10.63,21.779-21.019,21.779c-88.048,0.283-146.549,1.162-234.291,0.59
		c-11.813,0-22.618-5.602-22.618-17.415c0-11.812,9.589-21.401,21.401-21.401c3.08,0,6.004,0.654,8.65,1.827
		c4.796-7.94,13.499-13.253,23.446-13.253c3.917,0,7.648,0.832,11.019,2.315c1.878-12.054,12.305-21.294,24.882-21.294
		c9.929,0,18.518,5.752,22.62,14.105c3.668-2.171,7.859-3.564,12.332-3.939c-0.094-1.214-0.148-2.431-0.148-3.668
		C1464.012,1717.689,1485.052,1696.649,1510.971,1696.649z"/>
	<path id="path8801" fill="#FFFFFF" d="M1437.452-561.994c-38.507,0-70.415,28.448-75.842,65.456
		c-1.357-0.121-2.724-0.199-4.11-0.199c-26.494,0-48.07,22.496-48.66,50.429c-4.427-2.473-9.512-3.89-14.938-3.89
		c-16.96,0-30.739,13.78-30.739,30.739c0,16.959,17.353,35.554,34.312,35.554c143.733,0.463,239.232,1.897,382.468,0.963
		c19.284,0,36.922-9.145,36.922-28.429s-15.652-34.938-34.938-34.938c-5.027,0-9.8,1.068-14.12,2.983
		c-7.829-12.963-22.037-21.635-38.274-21.635c-6.394,0-12.486,1.357-17.988,3.779c-3.064-19.676-20.086-34.761-40.617-34.761
		c-16.207,0-30.229,9.391-36.926,23.026c-5.988-3.544-12.831-5.818-20.132-6.431c0.153-1.981,0.243-3.968,0.243-5.989
		C1514.111-527.646,1479.764-561.994,1437.452-561.994z"/>
	<path id="path8803" fill="#FFFFFF" d="M1634.691-226.083c-41.492,0-75.875,30.654-81.724,70.531
		c-1.463-0.13-2.935-0.214-4.429-0.214c-28.549,0-51.798,24.24-52.435,54.339c-4.769-2.664-10.249-4.191-16.097-4.191
		c-18.274,0-33.122,14.848-33.122,33.123s18.698,38.312,36.973,38.312c154.879,0.499,257.783,2.044,412.126,1.037
		c20.779,0,39.786-9.854,39.786-30.633c0-20.78-16.867-37.647-37.647-37.647c-5.417,0-10.56,1.151-15.216,3.215
		c-8.436-13.968-23.745-23.312-41.242-23.312c-6.89,0-13.454,1.462-19.383,4.072c-3.303-21.201-21.644-37.456-43.767-37.456
		c-17.465,0-32.574,10.119-39.79,24.812c-6.452-3.819-13.826-6.27-21.692-6.929c0.166-2.135,0.262-4.276,0.262-6.453
		C1717.295-189.072,1680.283-226.083,1634.691-226.083z"/>
	<path id="path8805" fill="#FFFFFF" d="M1441.086,143.648c-22.89,0-41.857,16.91-45.083,38.909
		c-0.807-0.072-1.619-0.119-2.443-0.119c-15.749,0-28.574,13.373-28.926,29.977c-2.631-1.47-5.653-2.312-8.88-2.312
		c-10.081,0-18.271,8.191-18.271,18.272c0,10.082,10.314,21.135,20.396,21.135c85.44,0.275,142.208,1.128,227.353,0.572
		c11.464,0,21.948-5.436,21.948-16.899c0-11.463-9.305-20.769-20.768-20.769c-2.989,0-5.825,0.635-8.395,1.773
		c-4.653-7.706-13.1-12.86-22.751-12.86c-3.801,0-7.423,0.807-10.693,2.246c-1.821-11.696-11.939-20.663-24.145-20.663
		c-9.634,0-17.97,5.582-21.95,13.688c-3.56-2.106-7.627-3.458-11.967-3.822c0.091-1.178,0.145-2.359,0.145-3.56
		C1486.655,164.066,1466.238,143.648,1441.086,143.648z"/>
	<path id="path8807" fill="#FFFFFF" d="M1635.578,324.389c-39.352,0-71.96,29.072-77.506,66.892
		c-1.388-0.123-2.783-0.203-4.201-0.203c-27.075,0-49.125,22.99-49.729,51.536c-4.523-2.527-9.721-3.975-15.267-3.975
		c-17.331,0-31.413,14.081-31.413,31.413s17.733,36.335,35.064,36.335c146.889,0.473,244.484,1.938,390.863,0.983
		c19.708,0,37.733-9.346,37.733-29.053s-15.997-35.704-35.705-35.704c-5.138,0-10.015,1.092-14.431,3.049
		c-8-13.248-22.521-22.109-39.114-22.109c-6.534,0-12.761,1.387-18.383,3.861c-3.132-20.107-20.527-35.523-41.509-35.523
		c-16.563,0-30.894,9.597-37.736,23.532c-6.12-3.623-13.113-5.946-20.574-6.572c0.157-2.025,0.249-4.055,0.249-6.12
		C1713.921,359.49,1678.818,324.389,1635.578,324.389z"/>
	<path id="path8809" fill="#FFFFFF" d="M1395.699,598.374c-22.965,0-41.995,16.967-45.231,39.038
		c-0.81-0.072-1.625-0.119-2.452-0.119c-15.801,0-28.669,13.417-29.021,30.076c-2.641-1.475-5.673-2.32-8.909-2.32
		c-10.115,0-18.333,8.219-18.333,18.333s10.349,21.204,20.463,21.204c85.724,0.276,142.679,1.132,228.104,0.574
		c11.501,0,22.021-5.453,22.021-16.955c0-11.501-9.336-20.836-20.837-20.836c-2.998,0-5.845,0.637-8.422,1.779
		c-4.668-7.731-13.143-12.903-22.826-12.903c-3.813,0-7.447,0.81-10.729,2.254c-1.828-11.734-11.979-20.731-24.224-20.731
		c-9.667,0-18.029,5.601-22.023,13.733c-3.571-2.114-7.652-3.471-12.006-3.836c0.091-1.182,0.145-2.366,0.145-3.571
		C1441.419,618.859,1420.934,598.374,1395.699,598.374z"/>
	<path id="path8811" fill="#FFFFFF" d="M1625.879,711.545c-47.584,0-87.015,35.155-93.721,80.887
		c-1.678-0.149-3.366-0.246-5.079-0.246c-32.74,0-59.403,27.8-60.133,62.316c-5.47-3.055-11.754-4.806-18.46-4.806
		c-20.957,0-37.985,17.028-37.985,37.985s21.443,43.936,42.401,43.936c177.617,0.572,295.629,2.345,472.631,1.19
		c23.831,0,45.627-11.301,45.627-35.132c0-23.83-19.343-43.174-43.174-43.174c-6.213,0-12.11,1.321-17.449,3.688
		c-9.674-16.02-27.232-26.734-47.298-26.734c-7.9,0-15.43,1.677-22.229,4.669c-3.787-24.313-24.821-42.955-50.192-42.955
		c-20.028,0-37.356,11.604-45.631,28.455c-7.399-4.38-15.856-7.19-24.878-7.947c0.19-2.448,0.301-4.903,0.301-7.4
		C1720.61,753.99,1678.165,711.545,1625.879,711.545z"/>
	<path id="path8813" fill="#FFFFFF" d="M1485.401,1022.654c-16.429,0-30.042,12.137-32.356,27.926
		c-0.58-0.052-1.162-0.085-1.754-0.085c-11.304,0-20.509,9.598-20.761,21.515c-1.889-1.055-4.058-1.659-6.373-1.659
		c-7.235,0-13.114,5.879-13.114,13.114s7.403,15.169,14.639,15.169c61.322,0.197,102.065,0.81,163.175,0.411
		c8.228,0,15.753-3.902,15.753-12.129c0-8.228-6.679-14.906-14.906-14.906c-2.145,0-4.181,0.456-6.024,1.273
		c-3.34-5.531-9.401-9.23-16.329-9.23c-2.728,0-5.327,0.579-7.674,1.612c-1.309-8.395-8.57-14.831-17.329-14.831
		c-6.915,0-12.897,4.007-15.755,9.824c-2.554-1.512-5.474-2.482-8.588-2.743c0.065-0.846,0.104-1.692,0.104-2.555
		C1518.107,1037.309,1503.453,1022.654,1485.401,1022.654z"/>
	<path id="path8815" fill="#FFFFFF" d="M1427.783,1148.759c-34.355,0-62.824,25.381-67.666,58.399
		c-1.212-0.108-2.431-0.178-3.668-0.178c-23.638,0-42.888,20.071-43.415,44.992c-3.948-2.206-8.486-3.47-13.328-3.47
		c-15.131,0-27.425,12.294-27.425,27.425s15.481,31.722,30.613,31.722c128.239,0.413,213.443,1.692,341.238,0.859
		c17.205,0,32.941-8.159,32.941-25.364c0-17.206-13.966-31.172-31.171-31.172c-4.485,0-8.743,0.953-12.599,2.662
		c-6.984-11.566-19.661-19.303-34.148-19.303c-5.705,0-11.141,1.211-16.049,3.372c-2.734-17.555-17.921-31.014-36.238-31.014
		c-14.461,0-26.972,8.378-32.946,20.544c-5.343-3.162-11.447-5.191-17.961-5.737c0.137-1.768,0.217-3.54,0.217-5.343
		C1496.179,1179.403,1465.533,1148.759,1427.783,1148.759z"/>
	<path id="path8817" fill="#FFFFFF" d="M1711.852,1404.2c-26.341,0-48.169,19.461-51.882,44.777
		c-0.929-0.083-1.862-0.137-2.812-0.137c-18.124,0-32.884,15.39-33.287,34.497c-3.028-1.691-6.507-2.66-10.22-2.66
		c-11.602,0-21.027,9.426-21.027,21.027s11.87,24.322,23.472,24.322c98.325,0.316,163.654,1.298,261.638,0.659
		c13.192,0,25.259-6.256,25.259-19.448c0-13.191-10.709-23.9-23.9-23.9c-3.439,0-6.704,0.731-9.66,2.041
		c-5.355-8.867-15.074-14.8-26.183-14.8c-4.374,0-8.541,0.929-12.305,2.585c-2.097-13.459-13.741-23.778-27.785-23.778
		c-11.088,0-20.681,6.424-25.261,15.752c-4.097-2.425-8.777-3.98-13.771-4.399c0.104-1.355,0.166-2.715,0.166-4.097
		C1764.293,1427.697,1740.796,1404.2,1711.852,1404.2z"/>
	<path id="path8819" fill="#FFFFFF" d="M1662.469,1812.722c-35.623,0-65.144,26.318-70.164,60.556
		c-1.256-0.111-2.52-0.184-3.803-0.184c-24.511,0-44.472,20.812-45.018,46.653c-4.095-2.288-8.8-3.599-13.82-3.599
		c-15.689,0-28.438,12.748-28.438,28.438s16.054,32.893,31.743,32.893c132.974,0.429,221.323,1.756,353.836,0.891
		c17.84,0,34.158-8.46,34.158-26.301c0-17.84-14.481-32.321-32.322-32.321c-4.651,0-9.066,0.988-13.063,2.76
		c-7.242-11.993-20.387-20.015-35.409-20.015c-5.915,0-11.552,1.255-16.642,3.496c-2.835-18.203-18.582-32.159-37.576-32.159
		c-14.994,0-27.967,8.688-34.162,21.303c-5.54-3.279-11.87-5.383-18.625-5.949c0.143-1.833,0.226-3.671,0.226-5.54
		C1733.39,1844.498,1701.613,1812.722,1662.469,1812.722z"/>
</g>
<g id="layer1_1_" opacity="0.15">
	<path id="path8729_1_" fill="#7EB0CC" d="M2885.34-192.677c-22.559,0-41.252,16.666-44.432,38.346
		c-0.795-0.071-1.596-0.116-2.408-0.116c-15.521,0-28.162,13.179-28.508,29.543c-2.593-1.449-5.572-2.279-8.751-2.279
		c-9.936,0-18.009,8.073-18.009,18.008s10.166,20.829,20.102,20.829c84.205,0.271,140.152,1.111,224.065,0.564
		c11.298,0,21.63-5.357,21.63-16.655s-9.17-20.468-20.467-20.468c-2.945,0-5.742,0.626-8.273,1.748
		c-4.586-7.594-12.91-12.674-22.422-12.674c-3.746,0-7.315,0.795-10.539,2.214c-1.795-11.527-11.767-20.364-23.795-20.364
		c-9.494,0-17.709,5.501-21.633,13.49c-3.508-2.076-7.517-3.409-11.793-3.767c0.09-1.161,0.142-2.325,0.142-3.508
		C2930.249-172.555,2910.127-192.677,2885.34-192.677z"/>
	<path id="path8731_1_" fill="#7EB0CC" d="M2941.676-39.053c-37.376,0-68.348,27.613-73.615,63.534
		c-1.317-0.117-2.644-0.193-3.99-0.193c-25.715,0-46.658,21.836-47.231,48.948c-4.296-2.4-9.232-3.775-14.5-3.775
		c-16.462,0-29.837,13.375-29.837,29.836s16.844,34.511,33.305,34.511c139.514,0.449,232.209,1.841,371.239,0.935
		c18.718,0,35.839-8.876,35.839-27.595c0-18.718-15.194-33.912-33.912-33.912c-4.881,0-9.513,1.037-13.707,2.896
		c-7.598-12.582-21.389-20.999-37.15-20.999c-6.205,0-12.119,1.317-17.459,3.668c-2.975-19.098-19.497-33.74-39.426-33.74
		c-15.731,0-29.342,9.115-35.842,22.351c-5.812-3.44-12.454-5.647-19.541-6.242c0.15-1.923,0.236-3.851,0.236-5.812
		C3016.084-5.714,2982.745-39.053,2941.676-39.053z"/>
	<path id="path8733_1_" fill="#7EB0CC" d="M3032.859,174.813c-38.762,0-70.882,28.637-76.345,65.89
		c-1.366-0.122-2.741-0.2-4.138-0.2c-26.67,0-48.389,22.645-48.983,50.763c-4.456-2.489-9.574-3.915-15.038-3.915
		c-17.07,0-30.941,13.871-30.941,30.942c0,17.072,17.467,35.79,34.539,35.79c144.686,0.466,240.818,1.91,385.003,0.97
		c19.412,0,37.167-9.206,37.167-28.618s-15.757-35.169-35.169-35.169c-5.062,0-9.864,1.076-14.214,3.003
		c-7.881-13.049-22.184-21.777-38.529-21.778c-6.436,0-12.568,1.366-18.106,3.804c-3.085-19.806-20.22-34.991-40.886-34.991
		c-16.316,0-30.432,9.453-37.172,23.179c-6.027-3.568-12.916-5.857-20.266-6.473c0.155-1.995,0.246-3.995,0.246-6.029
		C3110.027,209.389,3075.451,174.813,3032.859,174.813z"/>
	<path id="path8735_1_" fill="#7EB0CC" d="M3221.928,361.564c-33.193,0-60.699,24.522-65.377,56.423
		c-1.17-0.104-2.348-0.171-3.543-0.171c-22.838,0-41.438,19.392-41.945,43.47c-3.816-2.132-8.199-3.353-12.878-3.353
		c-14.619,0-26.497,11.878-26.497,26.497s14.958,30.647,29.577,30.647c123.899,0.399,206.221,1.636,329.691,0.83
		c16.623,0,31.827-7.883,31.827-24.506s-13.493-30.116-30.116-30.116c-4.334,0-8.448,0.921-12.173,2.571
		c-6.748-11.174-18.996-18.648-32.992-18.648c-5.512,0-10.764,1.169-15.507,3.257c-2.642-16.961-17.314-29.964-35.012-29.964
		c-13.972,0-26.059,8.095-31.831,19.849c-5.162-3.055-11.061-5.016-17.354-5.543c0.133-1.708,0.209-3.421,0.209-5.162
		C3288.008,391.172,3258.4,361.564,3221.928,361.564z"/>
	<path id="path8737_1_" fill="#7EB0CC" d="M2915.832,544.208c-30.869,0-56.449,22.807-60.8,52.475
		c-1.089-0.097-2.184-0.16-3.295-0.16c-21.239,0-38.537,18.035-39.011,40.428c-3.548-1.982-7.625-3.118-11.975-3.118
		c-13.597,0-24.644,11.047-24.644,24.643s13.911,28.503,27.507,28.503c115.229,0.371,191.787,1.521,306.615,0.772
		c15.46,0,29.601-7.331,29.601-22.791s-12.55-28.009-28.009-28.009c-4.031,0-7.856,0.856-11.32,2.392
		c-6.275-10.392-17.666-17.344-30.684-17.344c-5.126,0-10.01,1.088-14.421,3.029c-2.456-15.773-16.103-27.867-32.562-27.867
		c-12.993,0-24.234,7.528-29.604,18.46c-4.8-2.841-10.285-4.664-16.139-5.155c0.123-1.588,0.195-3.181,0.195-4.801
		C2977.289,571.744,2949.753,544.208,2915.832,544.208z"/>
	<path id="path8739_1_" fill="#7EB0CC" d="M3272.744,800.447c-21.65,0-39.592,15.995-42.643,36.803
		c-0.764-0.068-1.531-0.112-2.311-0.112c-14.896,0-27.028,12.648-27.36,28.354c-2.489-1.391-5.349-2.188-8.399-2.188
		c-9.535,0-17.283,7.748-17.283,17.283s9.757,19.99,19.293,19.99c80.814,0.261,134.508,1.067,215.043,0.542
		c10.843,0,20.76-5.142,20.76-15.984s-8.801-19.644-19.644-19.644c-2.827,0-5.51,0.601-7.939,1.677
		c-4.401-7.288-12.391-12.164-21.52-12.164c-3.595,0-7.021,0.764-10.114,2.125c-1.723-11.062-11.293-19.545-22.837-19.545
		c-9.113,0-16.997,5.28-20.763,12.947c-3.366-1.993-7.213-3.271-11.318-3.616c0.086-1.113,0.137-2.23,0.137-3.366
		C3315.846,819.76,3296.533,800.447,3272.744,800.447z"/>
	<path id="path8741_1_" fill="#7EB0CC" d="M3129.762,907.494c-9.657,0-17.66,7.135-19.021,16.417c-0.34-0.03-0.684-0.05-1.031-0.05
		c-6.645,0-12.057,5.642-12.204,12.647c-1.11-0.62-2.386-0.976-3.747-0.976c-4.254,0-7.709,3.456-7.709,7.71
		s4.352,8.917,8.605,8.917c36.05,0.116,60.002,0.477,95.927,0.242c4.837,0,9.261-2.294,9.261-7.131c0-4.836-3.926-8.763-8.764-8.763
		c-1.26,0-2.457,0.269-3.541,0.748c-1.963-3.251-5.527-5.426-9.6-5.426c-1.604,0-3.132,0.341-4.512,0.948
		c-0.769-4.936-5.037-8.719-10.188-8.719c-4.064,0-7.582,2.355-9.261,5.775c-1.502-0.889-3.218-1.459-5.05-1.613
		c0.039-0.497,0.062-0.995,0.062-1.502C3148.989,916.108,3140.374,907.494,3129.762,907.494z"/>
	<path id="path8743_1_" fill="#7EB0CC" d="M2984.121,982.151c-35.492,0-64.903,26.222-69.906,60.333
		c-1.25-0.111-2.51-0.184-3.788-0.184c-24.421,0-44.308,20.735-44.853,46.481c-4.079-2.279-8.767-3.585-13.77-3.585
		c-15.631,0-28.332,12.701-28.332,28.333s15.994,32.771,31.626,32.771c132.483,0.427,220.509,1.749,352.533,0.888
		c17.774,0,34.032-8.43,34.032-26.204s-14.428-32.203-32.203-32.203c-4.634,0-9.033,0.985-13.016,2.75
		c-7.215-11.948-20.312-19.941-35.278-19.941c-5.894,0-11.509,1.251-16.58,3.483c-2.825-18.136-18.515-32.04-37.438-32.04
		c-14.939,0-27.863,8.655-34.036,21.224c-5.519-3.267-11.827-5.362-18.556-5.927c0.142-1.826,0.225-3.657,0.225-5.521
		C3054.781,1013.811,3023.121,982.151,2984.121,982.151z"/>
	<path id="path8745_1_" fill="#7EB0CC" d="M3007.439,1206.458c-38.98,0-71.28,28.798-76.773,66.26
		c-1.375-0.122-2.758-0.202-4.161-0.202c-26.819,0-48.661,22.773-49.259,51.049c-4.48-2.503-9.628-3.938-15.121-3.938
		c-17.168,0-31.117,13.949-31.117,31.116c0,17.168,17.566,35.991,34.733,35.991c145.499,0.469,242.171,1.921,387.166,0.975
		c19.521,0,37.376-9.257,37.376-28.778c0-19.521-15.846-35.366-35.367-35.366c-5.089,0-9.92,1.081-14.294,3.02
		c-7.925-13.122-22.308-21.9-38.745-21.9c-6.471,0-12.639,1.374-18.209,3.825c-3.102-19.917-20.332-35.188-41.115-35.188
		c-16.406,0-30.602,9.506-37.38,23.31c-6.062-3.588-12.989-5.89-20.379-6.51c0.155-2.006,0.246-4.017,0.246-6.062
		C3085.04,1241.228,3050.271,1206.458,3007.439,1206.458z"/>
	<path id="path8747_1_" fill="#7EB0CC" d="M3315.701-445.306c47.777,0,87.368,35.298,94.102,81.215
		c1.685-0.149,3.379-0.247,5.1-0.247c32.873,0,59.645,27.913,60.377,62.57c5.491-3.067,11.802-4.826,18.535-4.826
		c21.042,0,38.14,17.097,38.14,38.14c0,21.042-21.53,44.114-42.573,44.114c-178.34,0.574-296.831,2.354-474.553,1.194
		c-23.928,0-45.812-11.347-45.812-35.273c0-23.927,19.422-43.35,43.35-43.35c6.238,0,12.16,1.326,17.521,3.702
		c9.714-16.084,27.343-26.843,47.489-26.843c7.934,0,15.493,1.684,22.319,4.689c3.803-24.413,24.923-43.13,50.396-43.13
		c20.111,0,37.51,11.651,45.817,28.57c7.431-4.398,15.921-7.219,24.979-7.979c-0.191-2.458-0.303-4.923-0.303-7.431
		C3220.584-402.688,3263.202-445.306,3315.701-445.306z"/>
	<path id="path8749_1_" fill="#7EB0CC" d="M3501.426-216.56c38.91,0,71.153,28.747,76.637,66.142
		c1.372-0.122,2.753-0.201,4.153-0.201c26.772,0,48.575,22.732,49.171,50.957c4.473-2.498,9.612-3.93,15.096-3.93
		c17.137,0,31.062,13.924,31.062,31.061s-17.535,35.927-34.672,35.927c-145.241,0.468-241.741,1.917-386.478,0.973
		c-19.486,0-37.311-9.241-37.311-28.727s15.818-35.304,35.305-35.304c5.08,0,9.902,1.08,14.269,3.015
		c7.91-13.099,22.268-21.861,38.675-21.861c6.461,0,12.618,1.371,18.178,3.818c3.096-19.882,20.297-35.125,41.042-35.125
		c16.378,0,30.548,9.489,37.314,23.268c6.051-3.582,12.965-5.879,20.343-6.498c-0.155-2.002-0.246-4.009-0.246-6.051
		C3423.963-181.852,3458.671-216.56,3501.426-216.56z"/>
	<path id="path8751_1_" fill="#7EB0CC" d="M3496.318,188.9c13.382,0,24.472,9.887,26.357,22.748
		c0.472-0.042,0.947-0.069,1.429-0.069c9.208,0,16.706,7.818,16.911,17.526c1.539-0.859,3.306-1.352,5.192-1.352
		c5.894,0,10.683,4.789,10.683,10.683s-6.03,12.356-11.925,12.356c-49.953,0.161-83.143,0.659-132.923,0.334
		c-6.702,0-12.832-3.178-12.832-9.88c0-6.702,5.44-12.142,12.143-12.142c1.747,0,3.405,0.372,4.907,1.037
		c2.721-4.505,7.658-7.519,13.302-7.519c2.223,0,4.34,0.472,6.252,1.313c1.064-6.838,6.98-12.081,14.115-12.081
		c5.634,0,10.507,3.264,12.834,8.003c2.081-1.232,4.459-2.022,6.996-2.235c-0.053-0.689-0.084-1.379-0.084-2.082
		C3469.676,200.837,3481.613,188.9,3496.318,188.9z"/>
	<path id="path8753_1_" fill="#7EB0CC" d="M3402.213,522.376c12.692,0,23.211,9.377,25,21.576c0.447-0.04,0.897-0.065,1.354-0.065
		c8.733,0,15.847,7.416,16.041,16.623c1.459-0.814,3.135-1.282,4.924-1.282c5.591,0,10.133,4.543,10.133,10.133
		c0,5.591-5.72,11.72-11.311,11.72c-47.38,0.153-78.86,0.626-126.075,0.318c-6.357,0-12.172-3.015-12.172-9.372
		c0-6.356,5.16-11.517,11.518-11.517c1.656,0,3.229,0.353,4.654,0.983c2.58-4.273,7.264-7.132,12.616-7.132
		c2.107,0,4.116,0.447,5.93,1.246c1.011-6.486,6.621-11.459,13.389-11.459c5.343,0,9.966,3.096,12.173,7.591
		c1.974-1.168,4.229-1.918,6.636-2.12c-0.051-0.652-0.08-1.308-0.08-1.974C3376.942,533.698,3388.265,522.376,3402.213,522.376z"/>
	<path id="path8755_1_" fill="#7EB0CC" d="M3610.895,587.7c44.343,0,81.088,32.76,87.337,75.376
		c1.563-0.139,3.136-0.229,4.733-0.229c30.51,0,55.356,25.905,56.036,58.072c5.097-2.848,10.953-4.479,17.202-4.479
		c19.53,0,35.398,15.868,35.398,35.398c0,19.529-19.982,40.942-39.513,40.942c-165.519,0.533-275.492,2.186-440.438,1.109
		c-22.207,0-42.519-10.531-42.519-32.738s18.026-40.232,40.233-40.232c5.79,0,11.285,1.23,16.261,3.436
		c9.015-14.928,25.377-24.914,44.076-24.914c7.362,0,14.379,1.562,20.714,4.352c3.529-22.658,23.131-40.029,46.773-40.029
		c18.664,0,34.812,10.813,42.523,26.517c6.896-4.082,14.775-6.7,23.183-7.405c-0.177-2.281-0.279-4.569-0.279-6.896
		C3522.616,627.254,3562.17,587.7,3610.895,587.7z"/>
	<path id="path8757_1_" fill="#7EB0CC" d="M3613.678,907.494c41.896,0,76.614,30.952,82.519,71.218
		c1.478-0.131,2.964-0.216,4.473-0.216c28.826,0,52.302,24.477,52.944,54.868c4.816-2.69,10.35-4.231,16.254-4.231
		c18.452,0,33.445,14.992,33.445,33.444s-18.881,38.685-37.333,38.685c-156.388,0.504-260.294,2.064-416.14,1.048
		c-20.982,0-40.174-9.95-40.174-30.933c0-20.981,17.031-38.013,38.014-38.013c5.471,0,10.663,1.162,15.364,3.246
		c8.518-14.104,23.977-23.539,41.644-23.539c6.957,0,13.586,1.477,19.572,4.111c3.334-21.408,21.854-37.821,44.192-37.821
		c17.635,0,32.892,10.218,40.178,25.054c6.515-3.856,13.961-6.331,21.904-6.997c-0.168-2.155-0.265-4.317-0.265-6.516
		C3530.27,944.866,3567.641,907.494,3613.678,907.494z"/>
	<path id="path8759_1_" fill="#7EB0CC" d="M3341.452,1108.847c12.897,0,23.585,9.528,25.403,21.924
		c0.454-0.04,0.912-0.066,1.377-0.066c8.874,0,16.101,7.534,16.298,16.891c1.482-0.828,3.187-1.303,5.004-1.303
		c5.681,0,10.296,4.615,10.296,10.296s-5.812,11.908-11.493,11.908c-48.143,0.155-80.13,0.636-128.105,0.323
		c-6.459,0-12.366-3.063-12.366-9.522s5.242-11.702,11.701-11.702c1.685,0,3.283,0.358,4.73,0.999
		c2.621-4.342,7.381-7.246,12.819-7.246c2.142,0,4.183,0.455,6.024,1.266c1.027-6.59,6.729-11.643,13.605-11.643
		c5.428,0,10.125,3.145,12.368,7.712c2.005-1.187,4.298-1.948,6.743-2.153c-0.052-0.664-0.082-1.329-0.082-2.006
		C3315.775,1120.352,3327.28,1108.847,3341.452,1108.847z"/>
	<path id="path8761_1_" fill="#7EB0CC" d="M3559.51,1175.123c36.249,0,66.286,26.779,71.395,61.617
		c1.278-0.114,2.564-0.188,3.869-0.188c24.94,0,45.252,21.177,45.808,47.471c4.167-2.327,8.954-3.661,14.062-3.661
		c15.965,0,28.937,12.972,28.937,28.937s-16.336,33.47-32.301,33.47c-135.305,0.436-225.203,1.786-360.039,0.906
		c-18.152,0-34.757-8.608-34.757-26.762s14.735-32.89,32.889-32.89c4.733,0,9.226,1.006,13.293,2.809
		c7.369-12.202,20.744-20.365,36.03-20.365c6.019,0,11.754,1.277,16.933,3.557c2.885-18.521,18.908-32.722,38.235-32.722
		c15.257,0,28.457,8.84,34.761,21.676c5.637-3.337,12.078-5.478,18.951-6.054c-0.145-1.865-0.229-3.735-0.229-5.637
		C3487.347,1207.456,3519.68,1175.123,3559.51,1175.123z"/>
	<path id="path8763_1_" fill="#7EB0CC" d="M3617.456,1350.166c39.886,0,72.937,29.467,78.558,67.8
		c1.406-0.125,2.821-0.206,4.258-0.206c27.442,0,49.792,23.302,50.403,52.234c4.585-2.562,9.852-4.028,15.474-4.028
		c17.566,0,31.839,14.272,31.839,31.839c0,17.567-17.974,36.828-35.54,36.828c-148.881,0.479-247.8,1.965-396.164,0.997
		c-19.975,0-38.245-9.473-38.245-29.447s16.214-36.188,36.188-36.188c5.208,0,10.151,1.106,14.627,3.09
		c8.108-13.427,22.826-22.409,39.645-22.409c6.623,0,12.934,1.406,18.633,3.914c3.174-20.38,20.805-36.005,42.071-36.005
		c16.788,0,31.312,9.727,38.249,23.851c6.202-3.671,13.29-6.026,20.853-6.661c-0.159-2.052-0.252-4.109-0.252-6.203
		C3538.052,1385.744,3573.629,1350.166,3617.456,1350.166z"/>
	<path id="path8765_1_" fill="#7EB0CC" d="M3554.601-653.505c-43.366,0-79.302,32.038-85.414,73.717
		c-1.528-0.136-3.067-0.224-4.629-0.224c-29.838,0-54.138,25.335-54.803,56.793c-4.984-2.785-10.712-4.38-16.823-4.38
		c-19.101,0-34.619,15.519-34.619,34.619s19.543,40.042,38.643,40.042c161.875,0.521,269.427,2.137,430.741,1.084
		c21.718,0,41.583-10.299,41.583-32.017s-17.629-39.347-39.348-39.347c-5.662,0-11.037,1.203-15.903,3.36
		c-8.816-14.599-24.817-24.365-43.105-24.365c-7.2,0-14.062,1.528-20.258,4.255c-3.451-22.159-22.621-39.148-45.743-39.148
		c-18.254,0-34.046,10.576-41.588,25.933c-6.743-3.992-14.45-6.553-22.672-7.242c0.173-2.231,0.273-4.469,0.273-6.744
		C3640.936-614.822,3602.253-653.505,3554.601-653.505z"/>
	<path id="path8767_1_" fill="#7EB0CC" d="M3690.871-311.214c-11.343,0-20.741,8.38-22.34,19.281
		c-0.4-0.036-0.803-0.059-1.211-0.059c-7.805,0-14.16,6.626-14.334,14.854c-1.304-0.728-2.802-1.146-4.4-1.146
		c-4.995,0-9.054,4.059-9.054,9.055c0,4.995,5.111,10.473,10.106,10.473c42.338,0.136,70.469,0.559,112.66,0.284
		c5.68,0,10.876-2.694,10.876-8.375c0-5.68-4.611-10.291-10.292-10.291c-1.48,0-2.887,0.315-4.159,0.879
		c-2.306-3.818-6.491-6.373-11.274-6.373c-1.883,0-3.678,0.4-5.298,1.113c-0.903-5.795-5.917-10.239-11.965-10.239
		c-4.773,0-8.904,2.766-10.877,6.783c-1.764-1.044-3.779-1.714-5.93-1.895c0.045-0.583,0.071-1.168,0.071-1.764
		C3713.451-301.096,3703.334-311.214,3690.871-311.214z"/>
	<path id="path8769_1_" fill="#7EB0CC" d="M3645.797-29.118c-37.053,0-67.757,27.375-72.979,62.985
		c-1.306-0.116-2.62-0.191-3.955-0.191c-25.493,0-46.256,21.647-46.824,48.525c-4.259-2.379-9.152-3.742-14.374-3.742
		c-16.319,0-29.579,13.259-29.579,29.579s16.697,34.212,33.017,34.212c138.31,0.445,230.204,1.826,368.034,0.927
		c18.557,0,35.529-8.8,35.529-27.356c0-18.556-15.063-33.619-33.619-33.619c-4.839,0-9.431,1.028-13.588,2.871
		c-7.533-12.474-21.206-20.818-36.83-20.818c-6.152,0-12.016,1.306-17.31,3.636c-2.949-18.933-19.328-33.449-39.084-33.449
		c-15.596,0-29.09,9.036-35.533,22.158c-5.762-3.411-12.347-5.599-19.371-6.188c0.147-1.907,0.233-3.818,0.233-5.763
		C3719.563,3.934,3686.512-29.118,3645.797-29.118z"/>
	<path id="path8771_1_" fill="#7EB0CC" d="M3664.271,328.026c-25.289,0-46.245,18.684-49.81,42.988
		c-0.892-0.079-1.788-0.131-2.699-0.131c-17.4,0-31.57,14.774-31.958,33.119c-2.907-1.623-6.247-2.554-9.812-2.554
		c-11.138,0-20.188,9.05-20.188,20.188c0,11.139,11.396,23.351,22.534,23.351c94.398,0.304,157.118,1.246,251.188,0.633
		c12.665,0,24.25-6.006,24.25-18.671s-10.281-22.946-22.946-22.946c-3.302,0-6.436,0.702-9.273,1.96
		c-5.142-8.514-14.474-14.209-25.138-14.209c-4.198,0-8.2,0.892-11.813,2.482c-2.013-12.923-13.191-22.83-26.676-22.83
		c-10.645,0-19.854,6.168-24.251,15.123c-3.933-2.328-8.427-3.821-13.222-4.224c0.101-1.301,0.159-2.605,0.159-3.933
		C3714.617,350.584,3692.06,328.026,3664.271,328.026z"/>
	<path id="path8773_1_" fill="#7EB0CC" d="M3818.006,452.023c-27.797,0-50.831,20.536-54.748,47.251
		c-0.98-0.088-1.967-0.144-2.968-0.144c-19.125,0-34.7,16.239-35.127,36.402c-3.195-1.784-6.866-2.807-10.783-2.807
		c-12.243,0-22.19,9.946-22.19,22.189c0,12.242,12.526,25.665,24.77,25.665c103.758,0.335,172.696,1.37,276.094,0.695
		c13.921,0,26.654-6.602,26.654-20.522s-11.3-25.221-25.221-25.221c-3.63,0-7.074,0.771-10.193,2.154
		c-5.651-9.357-15.908-15.617-27.63-15.617c-4.615,0-9.014,0.979-12.985,2.728c-2.212-14.203-14.5-25.093-29.32-25.093
		c-11.7,0-21.822,6.778-26.656,16.622c-4.322-2.559-9.262-4.2-14.532-4.643c0.11-1.43,0.175-2.864,0.175-4.323
		C3873.344,476.818,3848.55,452.023,3818.006,452.023z"/>
	<path id="path8775_1_" fill="#7EB0CC" d="M3924.07,956.776c-25.31,0-46.282,18.698-49.85,43.022
		c-0.893-0.079-1.79-0.131-2.702-0.131c-17.413,0-31.596,14.787-31.983,33.146c-2.909-1.625-6.252-2.557-9.818-2.557
		c-11.147,0-20.204,9.057-20.204,20.204s11.405,23.369,22.552,23.369c94.474,0.305,157.243,1.247,251.39,0.633
		c12.675,0,24.269-6.011,24.269-18.686c0-12.676-10.289-22.964-22.964-22.964c-3.305,0-6.441,0.702-9.282,1.961
		c-5.145-8.521-14.483-14.22-25.156-14.22c-4.202,0-8.207,0.892-11.823,2.483c-2.015-12.933-13.202-22.848-26.697-22.848
		c-10.653,0-19.869,6.172-24.271,15.135c-3.936-2.33-8.434-3.824-13.232-4.227c0.102-1.303,0.16-2.608,0.16-3.937
		C3974.457,979.353,3951.881,956.776,3924.07,956.776z"/>
	<path id="path8777_1_" fill="#7EB0CC" d="M3825.009,1154.814c-20.793,0-38.023,15.361-40.954,35.345
		c-0.732-0.065-1.471-0.107-2.219-0.107c-14.307,0-25.958,12.147-26.276,27.231c-2.391-1.336-5.137-2.101-8.067-2.101
		c-9.157,0-16.598,7.44-16.598,16.599s9.369,19.199,18.527,19.199c77.614,0.25,129.183,1.024,206.528,0.52
		c10.413,0,19.938-4.938,19.938-15.352s-8.452-18.865-18.865-18.865c-2.715,0-5.292,0.576-7.626,1.61
		c-4.227-7-11.899-11.683-20.667-11.683c-3.452,0-6.742,0.733-9.714,2.041c-1.654-10.625-10.846-18.771-21.933-18.771
		c-8.752,0-16.323,5.071-19.939,12.435c-3.233-1.914-6.929-3.143-10.871-3.473c0.083-1.07,0.131-2.143,0.131-3.234
		C3866.403,1173.361,3847.856,1154.814,3825.009,1154.814z"/>
	<path id="path8779_1_" fill="#7EB0CC" d="M3986.646,1314.984c-40.311,0-73.715,29.782-79.396,68.523
		c-1.421-0.126-2.851-0.208-4.303-0.208c-27.735,0-50.323,23.551-50.941,52.792c-4.634-2.588-9.957-4.071-15.639-4.071
		c-17.754,0-32.18,14.426-32.18,32.18s18.166,37.221,35.92,37.221c150.471,0.484,250.445,1.986,400.395,1.008
		c20.188,0,38.652-9.573,38.652-29.762c0-20.188-16.387-36.575-36.575-36.575c-5.263,0-10.259,1.119-14.782,3.123
		c-8.195-13.57-23.07-22.647-40.068-22.647c-6.693,0-13.071,1.42-18.831,3.956c-3.208-20.599-21.027-36.391-42.521-36.391
		c-16.968,0-31.647,9.831-38.657,24.105c-6.269-3.71-13.433-6.091-21.075-6.731c0.161-2.074,0.254-4.154,0.254-6.27
		C4066.898,1350.942,4030.941,1314.984,3986.646,1314.984z"/>
	<path id="path8781_1_" fill="#7EB0CC" d="M3757.514,1696.649c-36.232,0-66.257,26.768-71.363,61.59
		c-1.277-0.113-2.562-0.187-3.867-0.187c-24.93,0-45.231,21.167-45.787,47.45c-4.165-2.326-8.95-3.659-14.057-3.659
		c-15.958,0-28.924,12.966-28.924,28.924c0,15.957,16.328,33.454,32.286,33.454c135.245,0.436,225.105,1.785,359.883,0.906
		c18.146,0,34.742-8.604,34.742-26.751c0-18.145-14.729-32.874-32.875-32.874c-4.73,0-9.221,1.006-13.287,2.808
		c-7.365-12.198-20.735-20.357-36.014-20.357c-6.017,0-11.749,1.277-16.926,3.556c-2.884-18.514-18.9-32.708-38.219-32.708
		c-15.251,0-28.445,8.836-34.746,21.667c-5.634-3.335-12.073-5.475-18.942-6.051c0.145-1.864,0.229-3.733,0.229-5.636
		C3829.646,1728.969,3797.327,1696.649,3757.514,1696.649z"/>
	<path id="path8783_1_" fill="#7EB0CC" d="M3969.41-481.832c12.944,0,23.671,9.563,25.496,22.004
		c0.456-0.041,0.915-0.067,1.382-0.067c8.906,0,16.159,7.563,16.357,16.953c1.488-0.831,3.198-1.307,5.022-1.307
		c5.701,0,10.334,4.632,10.334,10.333s-5.834,11.952-11.535,11.952c-48.319,0.156-80.424,0.638-128.575,0.324
		c-6.483,0-12.413-3.074-12.413-9.557c0-6.482,5.263-11.745,11.745-11.745c1.69,0,3.295,0.359,4.747,1.003
		c2.632-4.357,7.409-7.272,12.867-7.272c2.149,0,4.197,0.456,6.047,1.27c1.03-6.614,6.753-11.686,13.654-11.686
		c5.449,0,10.163,3.157,12.414,7.741c2.013-1.191,4.313-1.956,6.768-2.162c-0.052-0.666-0.082-1.334-0.082-2.013
		C3943.639-470.285,3955.186-481.832,3969.41-481.832z"/>
	<path id="path8785_1_" fill="#7EB0CC" d="M4147.004-366.727c46.193,0,84.471,34.126,90.981,78.521
		c1.628-0.145,3.267-0.239,4.931-0.239c31.782,0,57.666,26.987,58.374,60.495c5.31-2.966,11.41-4.666,17.921-4.666
		c20.345,0,36.875,16.53,36.875,36.875s-20.816,42.651-41.161,42.651c-172.426,0.555-286.987,2.276-458.815,1.155
		c-23.134,0-44.294-10.97-44.294-34.104s18.778-41.912,41.912-41.912c6.031,0,11.757,1.282,16.939,3.579
		c9.392-15.55,26.437-25.953,45.915-25.953c7.67,0,14.979,1.628,21.579,4.533c3.676-23.603,24.096-41.699,48.725-41.699
		c19.443,0,36.265,11.265,44.298,27.623c7.183-4.252,15.392-6.98,24.15-7.714c-0.185-2.377-0.292-4.76-0.292-7.184
		C4055.042-325.522,4096.246-366.727,4147.004-366.727z"/>
	<path id="path8787_1_" fill="#7EB0CC" d="M4189.265-71.533c36.989,0,67.64,27.327,72.853,62.875
		c1.304-0.116,2.616-0.191,3.948-0.191c25.45,0,46.176,21.609,46.743,48.441c4.252-2.375,9.137-3.736,14.35-3.736
		c16.291,0,29.527,13.236,29.527,29.527s-16.669,34.153-32.96,34.153c-138.068,0.445-229.804,1.823-367.394,0.925
		c-18.524,0-35.468-8.784-35.468-27.308c0-18.524,15.037-33.561,33.562-33.561c4.829,0,9.413,1.027,13.564,2.866
		c7.52-12.452,21.168-20.782,36.766-20.782c6.142,0,11.994,1.304,17.279,3.63c2.943-18.9,19.294-33.391,39.016-33.391
		c15.569,0,29.039,9.021,35.471,22.119c5.752-3.405,12.326-5.589,19.339-6.177c-0.147-1.903-0.233-3.812-0.233-5.753
		C4115.627-38.539,4148.621-71.533,4189.265-71.533z"/>
	<path id="path8789_1_" fill="#7EB0CC" d="M4032.45,149.675c36.958,0,67.584,27.304,72.793,62.824
		c1.303-0.116,2.614-0.191,3.945-0.191c25.429,0,46.138,21.592,46.704,48.401c4.248-2.373,9.13-3.733,14.338-3.733
		c16.278,0,29.504,13.226,29.504,29.503s-16.655,34.125-32.933,34.125c-137.956,0.444-229.616,1.821-367.094,0.925
		c-18.509,0-35.438-8.777-35.438-27.287c0-18.509,15.024-33.533,33.533-33.533c4.826,0,9.406,1.025,13.554,2.863
		c7.514-12.442,21.15-20.765,36.735-20.765c6.137,0,11.984,1.303,17.266,3.627c2.94-18.885,19.278-33.363,38.983-33.363
		c15.557,0,29.016,9.013,35.442,22.101c5.747-3.402,12.315-5.584,19.322-6.172c-0.147-1.902-0.233-3.809-0.233-5.748
		C3958.872,182.642,3991.84,149.675,4032.45,149.675z"/>
	<path id="path8791_1_" fill="#7EB0CC" d="M4236.13,407.382c28.972,0,52.979,21.403,57.062,49.247
		c1.021-0.091,2.049-0.149,3.093-0.149c19.933,0,36.166,16.926,36.61,37.941c3.33-1.86,7.157-2.927,11.239-2.927
		c12.761,0,23.128,10.368,23.128,23.128s-13.056,26.75-25.815,26.75c-108.143,0.349-179.993,1.428-287.761,0.725
		c-14.509,0-27.78-6.881-27.78-21.39s11.777-26.286,26.287-26.286c3.782,0,7.373,0.804,10.624,2.244
		c5.89-9.753,16.58-16.277,28.797-16.277c4.811,0,9.395,1.021,13.534,2.844c2.305-14.804,15.111-26.153,30.559-26.153
		c12.194,0,22.744,7.065,27.783,17.324c4.505-2.666,9.653-4.377,15.146-4.838c-0.116-1.491-0.184-2.985-0.184-4.506
		C4178.453,433.225,4204.296,407.382,4236.13,407.382z"/>
	<path id="path8793_1_" fill="#7EB0CC" d="M4144.202,724.144c38.906,0,71.146,28.743,76.629,66.135c1.372-0.122,2.752-0.2,4.153-0.2
		c26.769,0,48.569,22.729,49.165,50.951c4.473-2.498,9.61-3.93,15.094-3.93c17.136,0,31.058,13.923,31.058,31.059
		c0,17.135-17.532,35.923-34.668,35.923c-145.225,0.468-241.715,1.917-386.438,0.973c-19.484,0-37.306-9.239-37.306-28.724
		s15.816-35.301,35.301-35.301c5.079,0,9.901,1.08,14.267,3.015c7.91-13.098,22.266-21.859,38.672-21.859
		c6.461,0,12.616,1.372,18.175,3.818c3.097-19.88,20.295-35.121,41.039-35.121c16.376,0,30.544,9.487,37.31,23.265
		c6.05-3.581,12.964-5.878,20.341-6.497c-0.155-2.002-0.246-4.009-0.246-6.051C4066.747,758.848,4101.451,724.144,4144.202,724.144z
		"/>
	<path id="path8795_1_" fill="#7EB0CC" d="M4239.437,1015.603c17.298,0,31.631,12.779,34.068,29.403
		c0.61-0.055,1.224-0.089,1.847-0.089c11.901,0,21.594,10.104,21.859,22.652c1.988-1.11,4.272-1.747,6.71-1.747
		c7.618,0,13.808,6.19,13.808,13.809s-7.795,15.971-15.413,15.971c-64.565,0.208-107.465,0.853-171.807,0.433
		c-8.663,0-16.586-4.107-16.586-12.771c0-8.662,7.031-15.694,15.694-15.694c2.258,0,4.401,0.48,6.343,1.341
		c3.517-5.823,9.899-9.719,17.193-9.719c2.872,0,5.608,0.609,8.08,1.697c1.377-8.838,9.023-15.615,18.245-15.615
		c7.281,0,13.58,4.219,16.588,10.344c2.69-1.592,5.764-2.613,9.043-2.889c-0.068-0.89-0.108-1.782-0.108-2.689
		C4205.001,1031.032,4220.43,1015.603,4239.437,1015.603z"/>
	<path id="path8797_1_" fill="#7EB0CC" d="M4225.243,1508.953c38.965,0,71.253,28.787,76.744,66.234
		c1.374-0.122,2.756-0.201,4.159-0.201c26.81,0,48.643,22.764,49.24,51.028c4.479-2.502,9.625-3.936,15.116-3.936
		c17.161,0,31.104,13.944,31.104,31.104c0,17.162-17.559,35.978-34.721,35.978c-145.443,0.469-242.079,1.92-387.02,0.975
		c-19.514,0-37.361-9.254-37.361-28.768s15.84-35.354,35.354-35.354c5.087,0,9.916,1.082,14.289,3.02
		c7.921-13.117,22.299-21.893,38.729-21.893c6.47,0,12.635,1.374,18.202,3.824c3.101-19.91,20.325-35.175,41.101-35.175
		c16.4,0,30.59,9.503,37.365,23.301c6.06-3.587,12.983-5.888,20.371-6.507c-0.155-2.005-0.246-4.016-0.246-6.061
		C4147.671,1543.71,4182.428,1508.953,4225.243,1508.953z"/>
	<path id="path8799_1_" fill="#7EB0CC" d="M4426.971,1696.649c23.588,0,43.135,17.427,46.459,40.097
		c0.832-0.074,1.668-0.122,2.518-0.122c16.23,0,29.447,13.78,29.809,30.892c2.712-1.515,5.827-2.383,9.151-2.383
		c10.389,0,18.83,8.441,18.83,18.83s-10.63,21.779-21.019,21.779c-88.048,0.283-146.549,1.162-234.291,0.59
		c-11.813,0-22.618-5.602-22.618-17.415c0-11.812,9.589-21.401,21.401-21.401c3.08,0,6.004,0.654,8.65,1.827
		c4.796-7.94,13.499-13.253,23.446-13.253c3.917,0,7.648,0.832,11.019,2.315c1.878-12.054,12.305-21.294,24.882-21.294
		c9.929,0,18.518,5.752,22.62,14.105c3.668-2.171,7.859-3.564,12.332-3.939c-0.094-1.214-0.148-2.431-0.148-3.668
		C4380.012,1717.689,4401.052,1696.649,4426.971,1696.649z"/>
	<path id="path8801_1_" fill="#7EB0CC" d="M4353.452-561.994c-38.507,0-70.415,28.448-75.842,65.456
		c-1.357-0.121-2.724-0.199-4.11-0.199c-26.494,0-48.07,22.496-48.66,50.429c-4.427-2.473-9.512-3.89-14.938-3.89
		c-16.96,0-30.739,13.78-30.739,30.739c0,16.959,17.353,35.554,34.312,35.554c143.733,0.463,239.232,1.897,382.468,0.963
		c19.284,0,36.922-9.145,36.922-28.429s-15.652-34.938-34.938-34.938c-5.027,0-9.8,1.068-14.12,2.983
		c-7.829-12.963-22.037-21.635-38.274-21.635c-6.394,0-12.486,1.357-17.988,3.779c-3.064-19.676-20.086-34.761-40.617-34.761
		c-16.207,0-30.229,9.391-36.926,23.026c-5.988-3.544-12.831-5.818-20.132-6.431c0.153-1.981,0.243-3.968,0.243-5.989
		C4430.111-527.646,4395.764-561.994,4353.452-561.994z"/>
	<path id="path8803_1_" fill="#7EB0CC" d="M4550.691-226.083c-41.492,0-75.875,30.654-81.724,70.531
		c-1.463-0.13-2.935-0.214-4.429-0.214c-28.549,0-51.798,24.24-52.435,54.339c-4.769-2.664-10.249-4.191-16.097-4.191
		c-18.274,0-33.122,14.848-33.122,33.123s18.698,38.312,36.973,38.312c154.879,0.499,257.783,2.044,412.126,1.037
		c20.779,0,39.786-9.854,39.786-30.633c0-20.78-16.867-37.647-37.647-37.647c-5.417,0-10.56,1.151-15.216,3.215
		c-8.436-13.968-23.745-23.312-41.242-23.312c-6.89,0-13.454,1.462-19.383,4.072c-3.303-21.201-21.644-37.456-43.767-37.456
		c-17.465,0-32.574,10.119-39.79,24.812c-6.452-3.819-13.826-6.27-21.692-6.929c0.166-2.135,0.262-4.276,0.262-6.453
		C4633.295-189.072,4596.283-226.083,4550.691-226.083z"/>
	<path id="path8805_1_" fill="#7EB0CC" d="M4357.086,143.648c-22.89,0-41.857,16.91-45.083,38.909
		c-0.807-0.072-1.619-0.119-2.443-0.119c-15.749,0-28.574,13.373-28.926,29.977c-2.631-1.47-5.653-2.312-8.88-2.312
		c-10.081,0-18.271,8.191-18.271,18.272c0,10.082,10.314,21.135,20.396,21.135c85.44,0.275,142.208,1.128,227.353,0.572
		c11.464,0,21.948-5.436,21.948-16.899c0-11.463-9.305-20.769-20.768-20.769c-2.989,0-5.825,0.635-8.395,1.773
		c-4.653-7.706-13.1-12.86-22.751-12.86c-3.801,0-7.423,0.807-10.693,2.246c-1.821-11.696-11.939-20.663-24.145-20.663
		c-9.634,0-17.97,5.582-21.95,13.688c-3.56-2.106-7.627-3.458-11.967-3.822c0.091-1.178,0.145-2.359,0.145-3.56
		C4402.655,164.066,4382.238,143.648,4357.086,143.648z"/>
	<path id="path8807_1_" fill="#7EB0CC" d="M4551.578,324.389c-39.352,0-71.96,29.072-77.506,66.892
		c-1.388-0.123-2.783-0.203-4.201-0.203c-27.075,0-49.125,22.99-49.729,51.536c-4.523-2.527-9.721-3.975-15.267-3.975
		c-17.331,0-31.413,14.081-31.413,31.413s17.733,36.335,35.064,36.335c146.889,0.473,244.484,1.938,390.863,0.983
		c19.708,0,37.733-9.346,37.733-29.053s-15.997-35.704-35.705-35.704c-5.138,0-10.015,1.092-14.431,3.049
		c-8-13.248-22.521-22.109-39.114-22.109c-6.534,0-12.761,1.387-18.383,3.861c-3.132-20.107-20.527-35.523-41.509-35.523
		c-16.563,0-30.894,9.597-37.736,23.532c-6.12-3.623-13.113-5.946-20.574-6.572c0.157-2.025,0.249-4.055,0.249-6.12
		C4629.921,359.49,4594.818,324.389,4551.578,324.389z"/>
	<path id="path8809_1_" fill="#7EB0CC" d="M4311.699,598.374c-22.965,0-41.995,16.967-45.231,39.038
		c-0.81-0.072-1.625-0.119-2.452-0.119c-15.801,0-28.669,13.417-29.021,30.076c-2.641-1.475-5.673-2.32-8.909-2.32
		c-10.115,0-18.333,8.219-18.333,18.333s10.349,21.204,20.463,21.204c85.724,0.276,142.679,1.132,228.104,0.574
		c11.501,0,22.021-5.453,22.021-16.955c0-11.501-9.336-20.836-20.837-20.836c-2.998,0-5.845,0.637-8.422,1.779
		c-4.668-7.731-13.143-12.903-22.826-12.903c-3.813,0-7.447,0.81-10.729,2.254c-1.828-11.734-11.979-20.731-24.224-20.731
		c-9.667,0-18.029,5.601-22.023,13.733c-3.571-2.114-7.652-3.471-12.006-3.836c0.091-1.182,0.145-2.366,0.145-3.571
		C4357.419,618.859,4336.934,598.374,4311.699,598.374z"/>
	<path id="path8811_1_" fill="#7EB0CC" d="M4541.879,711.545c-47.584,0-87.015,35.155-93.721,80.887
		c-1.678-0.149-3.366-0.246-5.079-0.246c-32.74,0-59.403,27.8-60.133,62.316c-5.47-3.055-11.754-4.806-18.46-4.806
		c-20.957,0-37.985,17.028-37.985,37.985s21.443,43.936,42.401,43.936c177.617,0.572,295.629,2.345,472.631,1.19
		c23.831,0,45.627-11.301,45.627-35.132c0-23.83-19.343-43.174-43.174-43.174c-6.213,0-12.11,1.321-17.449,3.688
		c-9.674-16.02-27.232-26.734-47.298-26.734c-7.9,0-15.43,1.677-22.229,4.669c-3.787-24.313-24.821-42.955-50.192-42.955
		c-20.028,0-37.356,11.604-45.631,28.455c-7.399-4.38-15.856-7.19-24.878-7.947c0.19-2.448,0.301-4.903,0.301-7.4
		C4636.61,753.99,4594.165,711.545,4541.879,711.545z"/>
	<path id="path8813_1_" fill="#7EB0CC" d="M4401.401,1022.654c-16.429,0-30.042,12.137-32.356,27.926
		c-0.58-0.052-1.162-0.085-1.754-0.085c-11.304,0-20.509,9.598-20.761,21.515c-1.889-1.055-4.058-1.659-6.373-1.659
		c-7.235,0-13.114,5.879-13.114,13.114s7.403,15.169,14.639,15.169c61.322,0.197,102.065,0.81,163.175,0.411
		c8.228,0,15.753-3.902,15.753-12.129c0-8.228-6.679-14.906-14.906-14.906c-2.145,0-4.181,0.456-6.024,1.273
		c-3.34-5.531-9.401-9.23-16.329-9.23c-2.728,0-5.327,0.579-7.674,1.612c-1.309-8.395-8.57-14.831-17.329-14.831
		c-6.915,0-12.897,4.007-15.755,9.824c-2.554-1.512-5.474-2.482-8.588-2.743c0.065-0.846,0.104-1.692,0.104-2.555
		C4434.107,1037.309,4419.453,1022.654,4401.401,1022.654z"/>
	<path id="path8815_1_" fill="#7EB0CC" d="M4343.783,1148.759c-34.355,0-62.824,25.381-67.666,58.399
		c-1.212-0.108-2.431-0.178-3.668-0.178c-23.638,0-42.888,20.071-43.415,44.992c-3.948-2.206-8.486-3.47-13.328-3.47
		c-15.131,0-27.425,12.294-27.425,27.425s15.481,31.722,30.613,31.722c128.239,0.413,213.443,1.692,341.238,0.859
		c17.205,0,32.941-8.159,32.941-25.364c0-17.206-13.966-31.172-31.171-31.172c-4.485,0-8.743,0.953-12.599,2.662
		c-6.984-11.566-19.661-19.303-34.148-19.303c-5.705,0-11.141,1.211-16.049,3.372c-2.734-17.555-17.921-31.014-36.238-31.014
		c-14.461,0-26.972,8.378-32.946,20.544c-5.343-3.162-11.447-5.191-17.961-5.737c0.137-1.768,0.217-3.54,0.217-5.343
		C4412.179,1179.403,4381.533,1148.759,4343.783,1148.759z"/>
	<path id="path8817_1_" fill="#7EB0CC" d="M4627.852,1404.2c-26.341,0-48.169,19.461-51.882,44.777
		c-0.929-0.083-1.862-0.137-2.812-0.137c-18.124,0-32.884,15.39-33.287,34.497c-3.028-1.691-6.507-2.66-10.22-2.66
		c-11.602,0-21.027,9.426-21.027,21.027s11.87,24.322,23.472,24.322c98.325,0.316,163.654,1.298,261.638,0.659
		c13.192,0,25.259-6.256,25.259-19.448c0-13.191-10.709-23.9-23.9-23.9c-3.439,0-6.704,0.731-9.66,2.041
		c-5.355-8.867-15.074-14.8-26.183-14.8c-4.374,0-8.541,0.929-12.305,2.585c-2.097-13.459-13.741-23.778-27.785-23.778
		c-11.088,0-20.681,6.424-25.261,15.752c-4.097-2.425-8.777-3.98-13.771-4.399c0.104-1.355,0.166-2.715,0.166-4.097
		C4680.293,1427.697,4656.796,1404.2,4627.852,1404.2z"/>
	<path id="path8819_1_" fill="#7EB0CC" d="M4578.469,1812.722c-35.623,0-65.144,26.318-70.164,60.556
		c-1.256-0.111-2.52-0.184-3.803-0.184c-24.511,0-44.472,20.812-45.018,46.653c-4.095-2.288-8.8-3.599-13.82-3.599
		c-15.689,0-28.438,12.748-28.438,28.438s16.054,32.893,31.743,32.893c132.974,0.429,221.323,1.756,353.836,0.891
		c17.84,0,34.158-8.46,34.158-26.301c0-17.84-14.481-32.321-32.322-32.321c-4.651,0-9.066,0.988-13.063,2.76
		c-7.242-11.993-20.387-20.015-35.409-20.015c-5.915,0-11.552,1.255-16.642,3.496c-2.835-18.203-18.582-32.159-37.576-32.159
		c-14.994,0-27.967,8.688-34.162,21.303c-5.54-3.279-11.87-5.383-18.625-5.949c0.143-1.833,0.226-3.671,0.226-5.54
		C4649.39,1844.498,4617.613,1812.722,4578.469,1812.722z"/>
</g>
<image overflow="visible" width="128" height="128" xlink:href="clouds.jpg"  transform="matrix(1 0 0 1 5485.6318 536.5)">
</image>
<path fill="#7EB0CC" d="M5604.896,622.5c0.717-2.289,1.104-4.725,1.104-7.25c0-13.393-10.856-24.25-24.25-24.25
	c-4.749,0-9.176,1.37-12.916,3.729c-3.631-9.489-12.818-16.229-23.584-16.229c-11.127,0-20.565,7.2-23.93,17.192
	c-1.007-0.122-2.03-0.192-3.07-0.192c-13.945,0-25.25,11.305-25.25,25.25c0,0.589,0.027,1.171,0.067,1.75H5604.896z"/>
<path fill="#7EB0CC" d="M5668.396,687.5c0.717-2.289,1.104-4.725,1.104-7.25c0-13.393-10.856-24.25-24.25-24.25
	c-4.749,0-9.176,1.37-12.916,3.729c-3.631-9.489-12.818-16.229-23.584-16.229c-11.127,0-20.565,7.2-23.93,17.192
	c-1.007-0.122-2.03-0.192-3.07-0.192c-13.945,0-25.25,11.305-25.25,25.25c0,0.589,0.027,1.171,0.067,1.75H5668.396z"/>
<path fill="#7EB0CC" d="M5541.896,687.5c0.717-2.289,1.104-4.725,1.104-7.25c0-13.393-10.856-24.25-24.25-24.25
	c-4.749,0-9.176,1.37-12.916,3.729c-3.631-9.489-12.818-16.229-23.584-16.229c-11.127,0-20.565,7.2-23.93,17.192
	c-1.007-0.122-2.03-0.192-3.07-0.192c-13.945,0-25.25,11.305-25.25,25.25c0,0.589,0.027,1.171,0.067,1.75H5541.896z"/>
<path fill="#7EB0CC" d="M5668.396,558.5c0.717-2.289,1.104-4.725,1.104-7.25c0-13.393-10.856-24.25-24.25-24.25
	c-4.749,0-9.176,1.37-12.916,3.729c-3.631-9.489-12.818-16.229-23.584-16.229c-11.127,0-20.565,7.2-23.93,17.192
	c-1.007-0.122-2.03-0.192-3.07-0.192c-13.945,0-25.25,11.305-25.25,25.25c0,0.589,0.027,1.171,0.067,1.75H5668.396z"/>
<path fill="#7EB0CC" d="M5541.896,558.5c0.717-2.289,1.104-4.725,1.104-7.25c0-13.393-10.856-24.25-24.25-24.25
	c-4.749,0-9.176,1.37-12.916,3.729c-3.631-9.489-12.818-16.229-23.584-16.229c-11.127,0-20.565,7.2-23.93,17.192
	c-1.007-0.122-2.03-0.192-3.07-0.192c-13.945,0-25.25,11.305-25.25,25.25c0,0.589,0.027,1.171,0.067,1.75H5541.896z"/>
<path opacity="0.25" fill="#7EB0CC" d="M5848.396,622.5c0.717-2.289,1.104-4.725,1.104-7.25c0-13.393-10.856-24.25-24.25-24.25
	c-4.749,0-9.176,1.37-12.916,3.729c-3.631-9.489-12.818-16.229-23.584-16.229c-11.127,0-20.565,7.2-23.93,17.192
	c-1.007-0.122-2.03-0.192-3.07-0.192c-13.945,0-25.25,11.305-25.25,25.25c0,0.589,0.027,1.171,0.067,1.75H5848.396z"/>
<path opacity="0.25" fill="#7EB0CC" d="M5911.896,687.5c0.717-2.289,1.104-4.725,1.104-7.25c0-13.393-10.856-24.25-24.25-24.25
	c-4.749,0-9.176,1.37-12.916,3.729c-3.631-9.489-12.818-16.229-23.584-16.229c-11.127,0-20.565,7.2-23.93,17.192
	c-1.007-0.122-2.03-0.192-3.07-0.192c-13.945,0-25.25,11.305-25.25,25.25c0,0.589,0.027,1.171,0.067,1.75H5911.896z"/>
<path opacity="0.25" fill="#7EB0CC" d="M5785.396,687.5c0.717-2.289,1.104-4.725,1.104-7.25c0-13.393-10.856-24.25-24.25-24.25
	c-4.749,0-9.176,1.37-12.916,3.729c-3.631-9.489-12.818-16.229-23.584-16.229c-11.127,0-20.565,7.2-23.93,17.192
	c-1.007-0.122-2.03-0.192-3.07-0.192c-13.945,0-25.25,11.305-25.25,25.25c0,0.589,0.027,1.171,0.067,1.75H5785.396z"/>
<path opacity="0.25" fill="#7EB0CC" d="M5911.896,558.5c0.717-2.289,1.104-4.725,1.104-7.25c0-13.393-10.856-24.25-24.25-24.25
	c-4.749,0-9.176,1.37-12.916,3.729c-3.631-9.489-12.818-16.229-23.584-16.229c-11.127,0-20.565,7.2-23.93,17.192
	c-1.007-0.122-2.03-0.192-3.07-0.192c-13.945,0-25.25,11.305-25.25,25.25c0,0.589,0.027,1.171,0.067,1.75H5911.896z"/>
<path opacity="0.25" fill="#7EB0CC" d="M5785.396,558.5c0.717-2.289,1.104-4.725,1.104-7.25c0-13.393-10.856-24.25-24.25-24.25
	c-4.749,0-9.176,1.37-12.916,3.729c-3.631-9.489-12.818-16.229-23.584-16.229c-11.127,0-20.565,7.2-23.93,17.192
	c-1.007-0.122-2.03-0.192-3.07-0.192c-13.945,0-25.25,11.305-25.25,25.25c0,0.589,0.027,1.171,0.067,1.75H5785.396z"/>
</svg>
